<svg height="1328" viewBox="0 0 923 1328" width="923" xmlns="http://www.w3.org/2000/svg" xmlns:xlink="http://www.w3.org/1999/xlink"><linearGradient id="a"><stop offset="0" stop-color="#00c3ff" stop-opacity="0"></stop><stop offset=".14173353" stop-color="#00c3ff"></stop><stop offset=".205183699" stop-color="#0b638c"></stop><stop offset=".906698691" stop-color="#107fb5" stop-opacity=".427994"></stop><stop offset="1" stop-color="#1187c1"></stop></linearGradient><linearGradient id="b" x1="84.829597%" x2="27.915401%" xlink:href="#a" y1="14.027897%" y2="254.82208%"></linearGradient><linearGradient id="c" x1="59.164756%" x2="44.188851%" xlink:href="#a" y1="14.027897%" y2="254.82208%"></linearGradient><linearGradient id="d" x1="139.259463%" x2="-6.597253%" xlink:href="#a" y1="38.177362%" y2="117.317093%"></linearGradient><linearGradient id="e" x1="139.259463%" x2="-6.597253%" xlink:href="#a" y1="38.964181%" y2="112.837012%"></linearGradient><linearGradient id="f" x1="131.68949%" x2="-1.797317%" xlink:href="#a" y1="14.027897%" y2="254.82208%"></linearGradient><linearGradient id="g" x1="71.381944%" x2="36.44223%" xlink:href="#a" y1="14.027897%" y2="254.82208%"></linearGradient><linearGradient id="h" x1="139.259463%" x2="-6.597253%" xlink:href="#a" y1="28.239098%" y2="173.904715%"></linearGradient><linearGradient id="i" x1="139.259463%" x2="-6.597253%" xlink:href="#a" y1="28.793737%" y2="170.746649%"></linearGradient><linearGradient id="j" x1="77.518784%" x2="32.551009%" xlink:href="#a" y1="14.027897%" y2="254.82208%"></linearGradient><linearGradient id="k" x1="139.259463%" x2="-6.597253%" xlink:href="#a" y1="37.778188%" y2="119.589955%"></linearGradient><linearGradient id="l" x1="88.976212%" x2="25.286133%" xlink:href="#a" y1="14.027897%" y2="254.82208%"></linearGradient><linearGradient id="m" x1="139.259463%" x2="-6.597253%" xlink:href="#a" y1="46.436534%" y2="70.290068%"></linearGradient><linearGradient id="n" x1="73.325224%" x2="35.210044%" xlink:href="#a" y1="14.027897%" y2="254.82208%"></linearGradient><linearGradient id="o" x1="139.259463%" x2="-6.597253%" xlink:href="#a" y1="35.833456%" y2="130.663089%"></linearGradient><linearGradient id="p" x1="55.349977%" x2="46.60771%" xlink:href="#a" y1="14.027897%" y2="254.82208%"></linearGradient><linearGradient id="q" x1="110.652751%" x2="11.541567%" xlink:href="#a" y1="14.027897%" y2="254.82208%"></linearGradient><g fill="none" fill-rule="evenodd" stroke-width=".8" transform="matrix(-.94551858 -.32556815 -.32556815 .94551858 920.687354 183.279184)"><path d="m157.607525 218.797406-40.955068 178.833117 192.044933-194.166883 40.955067-178.833117z" stroke="url(#b)" style="transform-origin: center center; animation: 0.7s ease-out 0.3s 1 normal forwards running datafeed_transform_anim;"></path><path d="m81.2546197 301.069058 16.708103 198.405665 132.2918973-266.595067-16.708103-198.4049326z" stroke="url(#c)" style="transform-origin: center center; animation: 0.68s ease-out 0.33s 1 normal forwards running datafeed_transform_anim;"></path><path d="m221.892467 583.623144 200.061531-72.957372-106.938469-103.042628-200.061531 72.957371z" stroke="url(#d)" style="transform-origin: center center; animation: 0.66s ease-out 0.36s 1 normal forwards running datafeed_transform_anim;"></path><path d="m308.522921 520.417119-293.5577194 21.821908 105.4422804 199.178092 293.55772-21.821908z" stroke="url(#e)" style="transform-origin: center center; animation: 0.64s ease-out 0.39s 1 normal forwards running datafeed_transform_anim;"></path><path d="m429.687797 1208.87572-143.558921-237.945778-165.441079-85.054222 143.558921 237.94578z" stroke="url(#f)" style="transform-origin: center center; animation: 0.62s ease-out 0.42s 1 normal forwards running datafeed_transform_anim;"></path><path d="m257.634942.21990486-126.354726 150.41243114-12.645274 133.587569 126.354725-150.412431z" stroke="url(#g)" style="transform-origin: center center; animation: 0.6s ease-out 0.45s 1 normal forwards running datafeed_transform_anim;"></path><path d="m365.92384 660.240048-172.685185-3.617895-106.3148147 213.382104 172.6844527 3.617896z" stroke="url(#h)" style="transform-origin: center center; animation: 0.58s ease-out 0.48s 1 normal forwards running datafeed_transform_anim;"></path><path d="m326.428452 333.05413-196.724331-13.999621-126.2756686 234.000379 196.7243306 13.999621z" stroke="url(#i)" style="transform-origin: center center; animation: 0.56s ease-out 0.51s 1 normal forwards running datafeed_transform_anim;"></path><path d="m463.440534 168.289833-158.37504 107.539507 42.62496 254.460493 158.37504-107.538774z" stroke="url(#j)" style="transform-origin: center center; animation: 0.54s ease-out 0.54s 1 normal forwards running datafeed_transform_anim;"></path><path d="m500.746536 670.474075-125.163344-146.629082-248.836656 71.370918 125.164075 146.629082z" stroke="url(#k)" style="transform-origin: center center; animation: 0.52s ease-out 0.57s 1 normal forwards running datafeed_transform_anim;"></path><path d="m329.47294 292.449362-212.459432 205.663134-50.540568 192.336866 212.459432-205.663134z" stroke="url(#l)" style="transform-origin: center center; animation: 0.5s ease-out 0.6s 1 normal forwards running datafeed_transform_anim;"></path><path d="m554.525412 800.966467-287.860232-140.648338-214.139768 17.351662 287.860232 140.648338z" stroke="url(#m)" style="transform-origin: center center; animation: 0.48s ease-out 0.63s 1 normal forwards running datafeed_transform_anim;"></path><path d="m203.028278 821.96522-36.091764-188.112575-100.9082362 79.887425 36.0917632 188.112575z" stroke="url(#n)" style="transform-origin: center center; animation: 0.46s ease-out 0.66s 1 normal forwards running datafeed_transform_anim;"></path><path d="m156.100851 762.9064 235.933593-122.254794-156.066407-123.745206-235.93359297 122.254061z" stroke="url(#o)" style="transform-origin: center center; animation: 0.44s ease-out 0.69s 1 normal forwards running datafeed_transform_anim;"></path><path d="m159.250861 557.733603-84.7796236-204.096222-45.2203767 326.903778 84.7796233 204.096222z" stroke="url(#p)" style="transform-origin: center center; animation: 0.42s ease-out 0.72s 1 normal forwards running datafeed_transform_anim;"></path><path d="m188.070312 933.237914-107.3261509-60.335478 75.6738489 161.664524 107.326151 60.33548z" stroke="url(#q)" style="transform-origin: center center; animation: 0.4s ease-out 0.75s 1 normal forwards running datafeed_transform_anim;"></path></g></svg>
