<?xml version="1.0" standalone="no"?>
<!DOCTYPE svg PUBLIC "-//W3C//DTD SVG 20010904//EN"
 "http://www.w3.org/TR/2001/REC-SVG-20010904/DTD/svg10.dtd">
<svg version="1.0" xmlns="http://www.w3.org/2000/svg"
 width="150.000000pt" height="150.000000pt" viewBox="0 0 150.000000 150.000000"
 preserveAspectRatio="xMidYMid meet">
<metadata>
Created by potrace 1.14, written by Peter Selinger 2001-2017
</metadata>
<g transform="translate(0.000000,150.000000) scale(0.100000,-0.100000)"
fill="#000000" stroke="none">
<path d="M599 1485 c-37 -7 -81 -20 -97 -29 -17 -9 -37 -16 -43 -16 -14 0
-140 -73 -171 -99 -135 -110 -228 -256 -267 -418 -22 -92 -21 -277 2 -358 79
-274 274 -470 539 -540 88 -24 257 -28 338 -10 110 26 241 86 314 145 141 114
249 294 274 460 14 88 8 238 -12 315 -67 263 -278 474 -538 541 -10 2 -28 6
-40 10 -54 13 -236 13 -299 -1z"/>
</g>
</svg>
