<?xml version="1.0" encoding="iso-8859-1"?><svg id="Layer_1" data-name="Layer 1" xmlns="http://www.w3.org/2000/svg" viewBox="0 0 600 600"><defs><style>
@keyframes sms {
  0% {
    top: 0;
  }
  50% {
    top: -50px;
  }
  80% {
    top: -100px;
  }
  100% {
    top: -150px;
  }
}
@-webkit-keyframes smoke {
	0% {
		opacity: 0;
		-webkit-transform: scale(0.1) rotate(30deg);
    transform: scale(0.1) rotate(30deg);
    -webkit-transform-origin: center bottom;
    transform-origin: center bottom;
	}
	
	25% {
		opacity: 0.5;
		-webkit-transform: rotate(-10deg);
    transform: rotate(-10deg);
	}
	
	75% {
		opacity: 1;
		-webkit-transform: rotate(3deg);
    transform: rotate(3deg);
	}

	100% {
		opacity: 0;
        -webkit-transform: translate3d(0, -10%, 0) scale(1);
        transform: translate3d(0, -10%, 0) scale(1)

	}

}

.smoke {
animation: 6s smoke infinite;
}
.cls-1{fill:#2e353a;}.cls-2{fill:#fafafa;}.cls-3{fill:#c20e1a;}.cls-4{opacity:0.3;}.cls-5{fill:#fff;}.cls-6{fill:#dfdfdf;}.cls-7{fill:#3b588e;}.cls-8{fill:#ca515b;}.cls-9{fill:#4d5a64;}.cls-10{fill:#eebd9d;}.cls-11{opacity:0.6;}.cls-12{fill:#262243;}.cls-13{fill:#d79870;}.cls-14{opacity:0.5;}</style></defs><g id="Layer_2" data-name="Layer 2"><path class="cls-1" d="M588.28,550.27c0,.17-128.26.32-286.45.32s-286.48-.15-286.48-.32,128.24-.33,286.48-.33S588.28,550.09,588.28,550.27Z"/><path class="cls-1" d="M438.71,550.27H275.38c-19.67-.09-35.78-16.87-35.7-36.54l1.73-410a35.64,35.64,0,0,1,35.8-35.47L440.78,69a35.62,35.62,0,0,1,35.46,35.78h0l-1.73,410a35.63,35.63,0,0,1-35.77,35.49Z"/><path class="cls-2" d="M440.54,83.12,408.83,83a7.88,7.88,0,0,0-7.73,8v5.75a7.88,7.88,0,0,1-7.73,8l-61.82-.29a7.88,7.88,0,0,1-7.67-8.08V90.63a7.88,7.88,0,0,0-7.66-8.09H305.06l-27.76-.13a25,25,0,0,0-25.07,24.85l-1.69,400.22a25,25,0,0,0,24.84,25.06l163.24.75a25,25,0,0,0,25.07-24.84l1.69-400.23A25,25,0,0,0,440.54,83.12Z"/><path class="cls-1" d="M298.67,124c0,.18-5.46.32-12.2.32s-12.2-.14-12.2-.32,5.46-.32,12.2-.32S298.67,123.84,298.67,124Z"/><path class="cls-1" d="M298.67,119.41c0,.17-5.46.32-12.2.32s-12.2-.15-12.2-.32,5.46-.33,12.2-.33S298.67,119.23,298.67,119.41Z"/><path class="cls-1" d="M298.67,114.8c0,.17-5.46.32-12.2.32s-12.2-.15-12.2-.32,5.46-.32,12.2-.32S298.67,114.62,298.67,114.8Z"/><rect class="cls-3" x="273.09" y="468.05" width="169.74" height="38.83" rx="3.97"/><g class="cls-4"><rect x="279.81" y="477.58" width="19.39" height="19.39" rx="3.11"/></g><path class="cls-5" d="M289.51,492.9a.48.48,0,0,1-.5-.48h0V482.15a.5.5,0,0,1,1,0h0v10.26a.49.49,0,0,1-.49.49Z"/><path class="cls-5" d="M294.54,487.78H284.46a.49.49,0,0,1-.49-.5h0a.49.49,0,0,1,.49-.5h10.08a.49.49,0,0,1,.5.49h0A.5.5,0,0,1,294.54,487.78Z"/><polygon class="cls-3" points="285.25 394.21 286.91 397.57 290.63 398.12 287.93 400.74 288.57 404.44 285.25 402.7 281.92 404.44 282.56 400.74 279.87 398.12 283.58 397.57 285.25 394.21"/><polygon class="cls-3" points="298.97 394.21 300.64 397.57 304.36 398.12 301.67 400.74 302.31 404.44 298.97 402.7 295.65 404.44 296.29 400.74 293.6 398.12 297.31 397.57 298.97 394.21"/><polygon class="cls-3" points="312.71 394.21 314.37 397.57 318.08 398.12 315.39 400.74 316.03 404.44 312.71 402.7 309.38 404.44 310.01 400.74 307.32 398.12 311.05 397.57 312.71 394.21"/><polygon class="cls-3" points="326.43 394.21 328.1 397.57 331.82 398.12 329.12 400.74 329.76 404.44 326.43 402.7 323.11 404.44 323.75 400.74 321.05 398.12 324.77 397.57 326.43 394.21"/><polygon class="cls-6" points="340.16 394.21 341.82 397.57 345.54 398.12 342.85 400.74 343.48 404.44 340.16 402.7 336.84 404.44 337.47 400.74 334.78 398.12 338.5 397.57 340.16 394.21"/><rect class="cls-7" x="290.64" y="212.45" width="134.63" height="127.67" rx="8.36" transform="translate(-0.43 0.56) rotate(-0.09)"/><rect class="cls-1" x="332.65" y="292.37" width="2.76" height="24.21" transform="translate(-0.48 0.53) rotate(-0.09)"/><rect class="cls-1" x="342.33" y="292.39" width="2.76" height="12.36" transform="translate(-0.47 0.54) rotate(-0.09)"/><rect class="cls-1" x="370.1" y="292.33" width="2.76" height="12.36" transform="translate(-0.47 0.58) rotate(-0.09)"/><rect class="cls-1" x="382.35" y="292.32" width="2.76" height="24.21" transform="translate(-0.48 0.6) rotate(-0.09)"/><path class="cls-2" d="M324.9,267l7.79,26.59,52.36-.09,8.22-25.5s-5.51-1.75-9-1l-1-28.3a3.88,3.88,0,0,0-5.45-3.43l-5.08,2.22H343.21l-3.4-1.7a3.85,3.85,0,0,0-5.16,1.74,3.89,3.89,0,0,0-.4,1.74l.25,28A22.37,22.37,0,0,0,324.9,267Z"/><path class="cls-6" d="M343,280.85A20.18,20.18,0,0,0,354,287a31,31,0,0,0,12.76-.26c2.29-.49,4.75-1.32,5.94-3.33s.7-4.7.14-7a32.66,32.66,0,0,0-3-8.74,11.11,11.11,0,0,0-7-5.64c-4.11-.85-8.21,1.52-11.25,4.42a31.59,31.59,0,0,0-8.46,13.94"/><path class="cls-1" d="M343.7,278.19c-.21,0-.39-9.06-.41-20.25s.13-20.25.34-20.25.39,9.07.41,20.25S343.91,278.19,343.7,278.19Z"/><path class="cls-1" d="M373.28,278.15c-.21,0-.4-9.07-.41-20.25s.13-20.26.34-20.26.39,9.07.41,20.25S373.48,278.15,373.28,278.15Z"/><path class="cls-1" d="M384.26,267a7.11,7.11,0,0,1-1.36.41l-.74.19-.85.32-1,.38-1.05.58a10.67,10.67,0,0,0-4.12,4.2,13.09,13.09,0,0,0-1.42,7.4v.38h-.37l-14,.05h-16v-.32a14.2,14.2,0,0,0-1.86-6.73,15,15,0,0,0-3.46-4.22,20.62,20.62,0,0,0-4.1-2.54,4.41,4.41,0,0,1,1.23.39,13.45,13.45,0,0,1,3.12,1.85,14.88,14.88,0,0,1,3.69,4.25,14.65,14.65,0,0,1,2,7l-.33-.33,15.69-.07h14l-.34.39a13.63,13.63,0,0,1,1.6-7.77,10.91,10.91,0,0,1,4.42-4.28l1.1-.55,1-.35.89-.28.76-.14A6.55,6.55,0,0,1,384.26,267Z"/><path class="cls-1" d="M343.14,280.74c0,.12-1,.31-2.43,1a12.25,12.25,0,0,0-7.1,9.47c-.23,1.58-.13,2.59-.26,2.6a5.44,5.44,0,0,1-.27-2.65,11.37,11.37,0,0,1,7.43-9.91A5.41,5.41,0,0,1,343.14,280.74Z"/><path class="cls-1" d="M384.53,294.08c-.12,0-.15-1.12-.59-2.83a14.58,14.58,0,0,0-8.66-10c-1.63-.68-2.74-.86-2.72-1a6.45,6.45,0,0,1,2.91.48,13.59,13.59,0,0,1,9,10.38A6.22,6.22,0,0,1,384.53,294.08Z"/><path class="cls-3" d="M287.79,439.79h-.23a.43.43,0,0,1-.21-.14L283,435.17a5.33,5.33,0,0,1-1.37-5.36,3.58,3.58,0,0,1,4.5-2.32,3.43,3.43,0,0,1,1.32.76,3.48,3.48,0,0,1,.38.48,2.48,2.48,0,0,1,.41-.51,3.38,3.38,0,0,1,2.48-.9,3.29,3.29,0,0,1,3.31,2.49h0a5.37,5.37,0,0,1-1.36,5.36l-4.4,4.48A.55.55,0,0,1,287.79,439.79ZM285,428.49h-.05a2.1,2.1,0,0,0-2.16,1.63,4.12,4.12,0,0,0,1.08,4.13l4,4,4-4a4.15,4.15,0,0,0,1.07-4.13,2.35,2.35,0,0,0-3.76-1.07,2.74,2.74,0,0,0-.65,1.81.59.59,0,0,1-.07.29.61.61,0,0,1-.7.32.59.59,0,0,1-.46-.58h0v-.08a2.84,2.84,0,0,0-.66-1.76A2.12,2.12,0,0,0,285,428.49Z"/><path class="cls-1" d="M404.41,177.81c0,.18-20.8.32-46.45.32s-46.45-.14-46.45-.32,20.8-.32,46.45-.32S404.41,177.63,404.41,177.81Z"/><rect class="cls-8" x="322.56" y="164.93" width="69.21" height="3.94"/><path class="cls-1" d="M420.79,374.23c0,.18-28.13.32-62.83.32s-62.83-.14-62.83-.32,28.13-.32,62.83-.32S420.79,374.05,420.79,374.23Z"/><path class="cls-1" d="M403.11,363.39c0,.18-20.22.32-45.15.32s-45.15-.14-45.15-.32,20.21-.32,45.15-.32S403.11,363.21,403.11,363.39Z"/><path class="cls-1" d="M443.33,124.44a32.72,32.72,0,0,1-4.64.24c-2.88.07-6.89.11-11.41.12H427l-.05-.31c-.08-.61-.17-1.24-.26-1.89-.78-5.55-1.42-10.51-1.78-13.71l.22.19a24.64,24.64,0,0,1-4.12-.23,28.38,28.38,0,0,1,4.12-.23h.2v.2c.53,3.19,1.27,8.13,2.05,13.68.09.65.17,1.28.26,1.89l-.36-.31c4.52,0,8.53,0,11.41.11A31.31,31.31,0,0,1,443.33,124.44Z"/><path class="cls-1" d="M426.82,121.11a4.62,4.62,0,0,1,1.23-.11l3.43-.1c2.94-.07,7.06-.11,11.84-.13l-.34.28c.35-2,.73-4.15,1.11-6.38.21-1.14.41-2.27.6-3.34l.35.42c-5.55,0-10.44-.06-14-.12l-4.13-.11a6.86,6.86,0,0,1-1.5-.13,6.3,6.3,0,0,1,1.5-.13l4.13-.11c3.51-.06,8.4-.11,14-.12h.43l-.07.42c-.19,1.08-.39,2.2-.59,3.35-.4,2.23-.78,4.38-1.14,6.38l-.05.28h-.3c-4.78,0-8.9-.07-11.84-.13l-3.43-.1A4.25,4.25,0,0,1,426.82,121.11Z"/><path class="cls-1" d="M431.29,128.79c-.11,0-.12-.62-.79-1.07a1.38,1.38,0,0,0-1.25-.12,1.29,1.29,0,0,0,0,2.38,1.35,1.35,0,0,0,1.25-.12c.67-.44.68-1.09.79-1.07s.11.15.09.43a1.6,1.6,0,0,1-.57,1.05,1.83,1.83,0,0,1-1.78.34,1.92,1.92,0,0,1,0-3.64,1.83,1.83,0,0,1,1.78.34,1.58,1.58,0,0,1,.57,1.06C431.4,128.65,431.34,128.79,431.29,128.79Z"/><path class="cls-1" d="M441.62,128.79c-.12,0-.12-.62-.79-1.07a1.38,1.38,0,0,0-1.25-.12,1.28,1.28,0,0,0,0,2.38,1.35,1.35,0,0,0,1.25-.12c.67-.44.67-1.09.79-1.07s.11.15.08.43a1.65,1.65,0,0,1-.56,1.05,1.85,1.85,0,0,1-1.79.34,1.92,1.92,0,0,1,0-3.64,1.85,1.85,0,0,1,1.79.34,1.59,1.59,0,0,1,.56,1.06C441.73,128.65,441.66,128.79,441.62,128.79Z"/><path class="cls-8" d="M452.3,110.4a6.83,6.83,0,1,1-6.83-6.83h0a6.82,6.82,0,0,1,6.83,6.81Z"/><path class="cls-5" d="M446.1,107.65v5.51h-.78v-4.82h-1.24v-.69Z"/><rect class="cls-9" x="160.75" y="441.26" width="16.28" height="108.72"/><rect class="cls-9" x="149.18" y="428.2" width="123.55" height="15.05"/><rect class="cls-9" x="169.85" y="487.63" width="84.95" height="15.05"/><rect class="cls-9" x="246.66" y="441.26" width="16.28" height="108.72"/><path class="cls-1" d="M272.67,443c0,.18-27.69.32-61.85.32S149,443.21,149,443s27.69-.32,61.85-.32S272.67,442.86,272.67,443Z"/><path class="cls-1" d="M177.1,515.34c-.17,0-.32-8.07-.32-18s.15-18,.32-18,.33,8.07.33,18S177.28,515.34,177.1,515.34Z"/><path class="cls-1" d="M246.63,514.64c-.18,0-.32-7.49-.32-16.74s.14-16.74.32-16.74.32,7.5.32,16.74S246.8,514.64,246.63,514.64Z"/><path class="cls-1" d="M273.37,432.31l-1.28-.34a22.58,22.58,0,0,0-3.75-.53c-3.29-.22-8.09.5-13.6,2.59-2.77,1-5.71,2.36-8.91,3.7a55,55,0,0,1-10.53,3.45,31.5,31.5,0,0,1-12.2-.13,67,67,0,0,1-12.53-4c-4.17-1.71-8.17-3.54-12.14-5a52.79,52.79,0,0,0-11.8-3.05,50.61,50.61,0,0,0-20.48,1.57,49.88,49.88,0,0,0-12.72,5.62l-1.84,1.19-1.3.95c-.7.51-1.08.76-1.08.76l1-.81,1.28-1,1.84-1.21a49.15,49.15,0,0,1,12.72-5.71,50.66,50.66,0,0,1,20.56-1.64,53.35,53.35,0,0,1,11.85,3c4,1.48,8,3.3,12.16,5a66.38,66.38,0,0,0,12.47,4,31.29,31.29,0,0,0,12.12.15,55.21,55.21,0,0,0,10.49-3.42c3.2-1.33,6.14-2.66,8.92-3.67,5.54-2.07,10.38-2.77,13.68-2.52a20.71,20.71,0,0,1,3.76.58Z"/><path class="cls-1" d="M180.6,435.83a13.65,13.65,0,0,1-3.47,1.48,17.55,17.55,0,0,1-10,0H167l.13-.12a22.05,22.05,0,0,1,21.41-5.26,9.84,9.84,0,0,1,3.06,1.34,3,3,0,0,1,1.31,2.88,3.21,3.21,0,0,1-2.18,2.13,48.26,48.26,0,0,1-10.35,2.37,50.4,50.4,0,0,1-7.16.31c-1.69-.06-2.61-.17-2.61-.17h.67l1.95.06a52.92,52.92,0,0,0,7.12-.39A48.79,48.79,0,0,0,190.63,438a3,3,0,0,0,2-2,2.77,2.77,0,0,0-1.22-2.63,9.66,9.66,0,0,0-3-1.3,21.89,21.89,0,0,0-3.31-.7,22.8,22.8,0,0,0-10.26,1.16,21.63,21.63,0,0,0-7.62,4.7v-.17a17.57,17.57,0,0,0,9.88.13,19,19,0,0,0,2.61-.95Z"/><path class="cls-1" d="M264.51,438.86a2.91,2.91,0,0,0,.55,1.32,4.17,4.17,0,0,0,3.51,1.4,4.46,4.46,0,0,0,2.48-.92,2.81,2.81,0,0,0,1-2.7,3,3,0,0,0-2.39-2.1,13.49,13.49,0,0,0-3.7-.09,35,35,0,0,0-7.12,1.07,19.46,19.46,0,0,0-5.36,2.36,14.73,14.73,0,0,0-3,2.57c-.32.35-.54.64-.69.83l-.24.3a8.3,8.3,0,0,1,.85-1.19,14.07,14.07,0,0,1,3-2.66,18.77,18.77,0,0,1,5.4-2.43,33.45,33.45,0,0,1,7.17-1.11,13.61,13.61,0,0,1,3.77.1,3.27,3.27,0,0,1,2.56,2.3,3,3,0,0,1-1.12,2.91,4.49,4.49,0,0,1-2.61.94,4.23,4.23,0,0,1-3.59-1.52,2.51,2.51,0,0,1-.45-1C264.52,439.11,264.51,439,264.51,438.86Z"/><path class="cls-1" d="M271,427.68h-2.53c-.81,0-1.8.1-3,.2a31,31,0,0,0-3.87.62,82,82,0,0,0-9.83,2.78c-3.65,1.2-7.63,2.67-12,3.77a39.55,39.55,0,0,1-12.44,1.32,31.14,31.14,0,0,1-9.9-2.49,30.08,30.08,0,0,1-6-3.46,20.18,20.18,0,0,1-1.95-1.62s.19.13.52.4.83.66,1.49,1.14a31.34,31.34,0,0,0,15.83,5.79,39.64,39.64,0,0,0,12.36-1.33c4.3-1.1,8.28-2.55,11.94-3.74a80.45,80.45,0,0,1,9.86-2.73c1.43-.31,2.75-.45,3.89-.59s2.16-.13,3-.16l1.88.08Z"/><path class="cls-1" d="M248.32,550.27v-1.1a23.49,23.49,0,0,1,.12-3.14,42.49,42.49,0,0,1,3-11.12c1.72-4.56,4.36-9.78,6.06-16A50.29,50.29,0,0,0,259,509a49.27,49.27,0,0,0-.67-10.78,48.17,48.17,0,0,0-3-10.38c-1.34-3.23-2.82-6.28-3.79-9.38a20.38,20.38,0,0,1-.93-9.07A23.51,23.51,0,0,1,253,461.8a36.86,36.86,0,0,1,7-9.14c2-1.91,3.13-2.85,3.13-2.85l-.8.75c-.52.48-1.3,1.2-2.26,2.17a37.42,37.42,0,0,0-6.91,9.15,23.47,23.47,0,0,0-2.41,7.52,20.23,20.23,0,0,0,1,9c1,3.07,2.45,6.12,3.79,9.36a48.51,48.51,0,0,1,3,10.42A50.45,50.45,0,0,1,259.2,509a49.7,49.7,0,0,1-1.56,10c-1.72,6.25-4.37,11.45-6.11,16a43.93,43.93,0,0,0-3.06,11.08,23.31,23.31,0,0,0-.17,3.12C248.33,549.89,248.32,550.27,248.32,550.27Z"/><path class="cls-1" d="M246.28,482.33s.11.17.3.52.47.91.79,1.51c.67,1.31,1.65,3.22,2.76,5.63a65.65,65.65,0,0,1,3.35,8.68,36.38,36.38,0,0,1,1.64,11.26,42.94,42.94,0,0,1-1.82,11.25,79.45,79.45,0,0,1-3.18,8.75c-1,2.43-2,4.38-2.58,5.72-.29.61-.54,1.12-.74,1.53s-.27.53-.27.53.07-.19.22-.55l.7-1.56c.6-1.35,1.48-3.3,2.5-5.74,2-4.87,4.74-11.82,4.92-19.93a36.57,36.57,0,0,0-1.62-11.19,67.82,67.82,0,0,0-3.28-8.68c-1.09-2.41-2-4.33-2.69-5.66-.3-.61-.55-1.11-.75-1.53S246.28,482.33,246.28,482.33Z"/><path class="cls-1" d="M258.48,476.1a.68.68,0,0,1-.21-.34,1.22,1.22,0,0,1,.23-1.1,1.46,1.46,0,0,1,1.69-.37,2.79,2.79,0,0,1,1.55,1.77,7.9,7.9,0,0,1,.47,2.85,6.3,6.3,0,0,1-.84,3.2,2.41,2.41,0,0,1-1.45,1.11,1.67,1.67,0,0,1-1.68-.85,15.38,15.38,0,0,1-1.53-3.62,17.33,17.33,0,0,1-.48-7.51,17.09,17.09,0,0,1,4.54-9.13,10.66,10.66,0,0,1,1.12-1,2.44,2.44,0,0,1-.27.29q-.28.27-.78.81a18,18,0,0,0-2.4,3.35A17,17,0,0,0,257,478.68a14.76,14.76,0,0,0,1.49,3.55,1.41,1.41,0,0,0,1.42.75,2.18,2.18,0,0,0,1.3-1,6.17,6.17,0,0,0,.82-3.08,7.52,7.52,0,0,0-.42-2.78,2.64,2.64,0,0,0-1.43-1.7,1.36,1.36,0,0,0-1.57.3,1.17,1.17,0,0,0-.25,1A1.29,1.29,0,0,0,258.48,476.1Z"/><path class="cls-1" d="M264.68,518.47a1.18,1.18,0,0,1-.16.29l-.5.82c-.44.7-1,1.74-1.73,3A46.62,46.62,0,0,0,257,545c0,1.48.1,2.68.18,3.51,0,.35.06.66.08,1a.91.91,0,0,1,0,.33,34.82,34.82,0,0,1-.45-4.79,44.41,44.41,0,0,1,5.31-22.41A34.94,34.94,0,0,1,264.68,518.47Z"/><path class="cls-1" d="M246,497.58a75.13,75.13,0,0,1-9.77,2.8,90.38,90.38,0,0,1-37.84.18c-4.08-.83-7.65-2-10.67-2.82a33.61,33.61,0,0,0-7.3-1.32,16.68,16.68,0,0,0-2,0h-.71a14.65,14.65,0,0,1,2.73-.13,32,32,0,0,1,7.33,1.25c3,.82,6.61,1.95,10.68,2.76A91.27,91.27,0,0,0,211.82,502a93.27,93.27,0,0,0,24.38-1.87c3.06-.68,5.52-1.34,7.2-1.84l1.93-.59Z"/><path class="cls-1" d="M225.92,492.76a18,18,0,0,1-3.57,1.24,23.79,23.79,0,0,1-10.25.26,5.62,5.62,0,0,1-1.59-.58,3,3,0,0,1-1.28-1.24,1.56,1.56,0,0,1,.37-1.78,3.71,3.71,0,0,1,1.76-.76,56.92,56.92,0,0,1,8.14-.77,58.27,58.27,0,0,1,18.5,2.6c1.23.39,2.43.81,3.55,1.23l.29.11-.28.13a60.83,60.83,0,0,1-16.71,4.8,60.13,60.13,0,0,1-14.06.31,57.2,57.2,0,0,1-9.28-1.61c-2.15-.57-3.3-1-3.3-1s.3.07.86.23,1.38.41,2.46.65A61.61,61.61,0,0,0,241.45,493v.23c-1.11-.42-2.31-.84-3.54-1.23a58.57,58.57,0,0,0-18.41-2.6,56.46,56.46,0,0,0-8.11.74,3.37,3.37,0,0,0-1.66.7,1.37,1.37,0,0,0-.33,1.55,4,4,0,0,0,2.73,1.72,23.67,23.67,0,0,0,10.19-.18,27.52,27.52,0,0,0,2.68-.8Z"/><path class="cls-1" d="M178.32,493.86a3.75,3.75,0,0,1,.66-.4,15,15,0,0,1,1.91-.89,21.11,21.11,0,0,1,13.68-.64,15.85,15.85,0,0,1,2,.71,3.49,3.49,0,0,1,.7.34,4.84,4.84,0,0,1-.73-.25c-.46-.17-1.15-.39-2-.63a22.81,22.81,0,0,0-6.83-.74,22.48,22.48,0,0,0-6.73,1.38c-.83.31-1.49.59-1.93.81A6.66,6.66,0,0,1,178.32,493.86Z"/><path class="cls-1" d="M169,519.41s-.28-.32-.77-.95a14.26,14.26,0,0,1-1.85-3,6.54,6.54,0,0,1-.55-2.5,4.65,4.65,0,0,1,1-2.84,3.45,3.45,0,0,1,3.07-1.47,3.06,3.06,0,0,1,1.72.87,5,5,0,0,1,1.07,1.71,15,15,0,0,1,.77,4.24,29.39,29.39,0,0,1-.82,9.61c-.2.84-.45,1.68-.73,2.52a9.6,9.6,0,0,1-1.14,2.45,2.84,2.84,0,0,1-2.38,1.37A3.17,3.17,0,0,1,166,529.9a8.66,8.66,0,0,1-1.21-2.64c-.29-.93-.55-1.87-.76-2.84a35.31,35.31,0,0,1-.52-12.17,67,67,0,0,1,2.92-11.85c1.21-3.75,2.42-7.35,3.28-10.87a51,51,0,0,0,1-19.06,52.85,52.85,0,0,0-3.4-12.47c-.59-1.41-1.08-2.49-1.45-3.21s-.53-1.11-.53-1.11.21.37.58,1.09.89,1.79,1.49,3.19a50.79,50.79,0,0,1,2.53,31.64c-.85,3.53-2.07,7.14-3.27,10.89a68.37,68.37,0,0,0-2.91,11.81,35,35,0,0,0,.52,12.08c.21,1,.46,1.9.74,2.82a8.64,8.64,0,0,0,1.18,2.56,2.89,2.89,0,0,0,2.18,1.42,2.6,2.6,0,0,0,2.18-1.27,9.13,9.13,0,0,0,1.11-2.39c.28-.83.53-1.66.73-2.49a31.33,31.33,0,0,0,.82-4.9,32.65,32.65,0,0,0,.06-4.64,14.53,14.53,0,0,0-.74-4.19,3.55,3.55,0,0,0-2.64-2.49,3.31,3.31,0,0,0-2.94,1.4,4.52,4.52,0,0,0-1,2.75,6.32,6.32,0,0,0,.53,2.46,14,14,0,0,0,1.79,3Z"/><path class="cls-1" d="M176.44,522.78a20.28,20.28,0,0,1-.06,4.54,28,28,0,0,1-3.25,10.44c-2.07,3.76-4.69,6.81-7.21,8.17a7.16,7.16,0,0,1-3.19.94,4.49,4.49,0,0,1-1.21-.13,6.25,6.25,0,0,0,1.21,0,7.3,7.3,0,0,0,3.11-1c2.44-1.36,5-4.41,7.06-8.13a29.06,29.06,0,0,0,3.3-10.34c.13-1.1.2-2.2.22-3.3v-.91A.88.88,0,0,1,176.44,522.78Z"/><path class="cls-1" d="M162.12,443.11s-.07.19-.21.54a12.29,12.29,0,0,0-.55,1.58,15.88,15.88,0,0,0-.4,6.1,31.44,31.44,0,0,0,2.51,8.75c1.34,3.17,3.13,6.53,4.4,10.33a23.43,23.43,0,0,1,1.06,11.11,36.09,36.09,0,0,1-2.49,8.82,54.81,54.81,0,0,1-2.66,5.58c-.69,1.29-1.12,2-1.12,2s.08-.18.26-.52l.77-1.49c.66-1.3,1.61-3.19,2.59-5.6a36.73,36.73,0,0,0,2.41-8.79,24.12,24.12,0,0,0,.15-5.37,25.14,25.14,0,0,0-1.22-5.63c-1.26-3.77-3-7.14-4.36-10.32a31.08,31.08,0,0,1-2.48-8.82,15.91,15.91,0,0,1,.48-6.14A9.6,9.6,0,0,1,162.12,443.11Z"/><path class="cls-1" d="M175.39,477.64a2.32,2.32,0,0,1,.05-.38c0-.25.14-.61.2-1.09a23,23,0,0,0,.27-4.06A40.43,40.43,0,0,0,173.05,459c-1.84-4.92-3.71-9.32-4.66-12.65a31.75,31.75,0,0,1-1.2-5.45,2.34,2.34,0,0,1,.09.38c.06.24.12.61.23,1.08.2.94.54,2.3,1.05,3.94,1,3.3,2.89,7.68,4.74,12.61a39.13,39.13,0,0,1,2.79,13.16,20.6,20.6,0,0,1-.35,4.07A15.05,15.05,0,0,1,175.39,477.64Z"/><polygon class="cls-10" points="146.96 480.02 139.86 535.52 164.16 539.43 179.23 483.06 146.96 480.02"/><path class="cls-7" d="M140.59,528.18l-.32,1.59s-29.46,6.09-30.75,11.15L163.86,550l2.66-17.92C157.74,534.41,149.2,533.41,140.59,528.18Z"/><g class="cls-11"><path class="cls-5" d="M159.93,536.84a2.17,2.17,0,0,1,1.06,2.75,2.23,2.23,0,0,1-2.79,1.1,2.27,2.27,0,0,1-1.1-2.91,2.31,2.31,0,0,1,3-.84"/></g><g class="cls-11"><path class="cls-5" d="M163.86,550l.64-4.31-52.32-7.12s-2.62.64-2.66,2.36Z"/></g><path class="cls-1" d="M140.05,529.88c0,.27,1.27.61,2.41,1.66s1.63,2.27,1.9,2.21.15-1.63-1.26-2.89S140,529.64,140.05,529.88Z"/><path class="cls-1" d="M133.91,531.25c-.11.25,1,.88,1.65,2.14s.72,2.46,1,2.49.72-1.41-.17-3S134,531,133.91,531.25Z"/><path class="cls-1" d="M129.39,537.42c.23.1.85-1.14.44-2.69s-1.54-2.32-1.69-2.12.47,1.09.78,2.37S129.13,537.35,129.39,537.42Z"/><polygon class="cls-10" points="180.81 480.62 184.75 529.11 207.01 525.88 208.51 478.26 180.81 480.62"/><path class="cls-7" d="M207.09,516.3s-14.94,12.06-23.26,3.2l-1.65,4.71-6.54,33.19a4.34,4.34,0,0,0,2.9,5,4.43,4.43,0,0,0,4.52-1.2c6-6.48,28.1-30.42,27.64-33.42l-.68-8a4.09,4.09,0,0,0-2.93-3.54Z"/><g class="cls-11"><path class="cls-5" d="M179.33,562.6,210.51,525l.12,1.75c.31,1.88-.48,2.69-1.32,4-2.46,3.79-9.43,12.38-26.12,30.48a4.43,4.43,0,0,1-3.86,1.36Z"/></g><g class="cls-11"><path class="cls-5" d="M205.17,520.22a2.51,2.51,0,0,0-.48,3.38,2.56,2.56,0,0,0,3.44.48,2.64,2.64,0,0,0,.49-3.58c-.87-.92-2.83-1.11-3.63-.12"/></g><path class="cls-1" d="M187.74,543.93c-.23.13-1.34-2-3.93-2.95s-4.87-.31-4.94-.56c0-.1.47-.46,1.45-.66a7,7,0,0,1,3.84.38,6.74,6.74,0,0,1,3,2.33C187.73,543.28,187.84,543.89,187.74,543.93Z"/><path class="cls-1" d="M185.11,549.65c-.19.19-1.64-1-3.87-1.51s-4.08,0-4.16-.22,1.83-1.22,4.37-.66S185.32,549.53,185.11,549.65Z"/><path class="cls-1" d="M192.85,536.46c-.19.21-2.41-1.71-5.81-2.72s-6.34-.7-6.37-1,3-1,6.65.12S193,536.33,192.85,536.46Z"/><path class="cls-1" d="M192.86,526.51c-.09.25-2.49-.53-5.54-.43s-5.41,1-5.52.74,2.22-1.56,5.49-1.64S193,526.31,192.86,526.51Z"/><path class="cls-1" d="M185.58,526.12a3.75,3.75,0,0,1,.12-1.56,10.77,10.77,0,0,1,1.74-3.93,5,5,0,0,1,2.37-2.06,1.76,1.76,0,0,1,1.91.59,2.63,2.63,0,0,1,.45,1.92,6.11,6.11,0,0,1-6,4.93,7.06,7.06,0,0,1-6.53-4.35,2.34,2.34,0,0,1,.12-2,1.76,1.76,0,0,1,1.88-.69,6.16,6.16,0,0,1,2.61,1.71,11.69,11.69,0,0,1,2.5,3.49,3.54,3.54,0,0,1,.48,1.49,19.45,19.45,0,0,0-3.44-4.52,5.56,5.56,0,0,0-2.31-1.43.93.93,0,0,0-1,.37,1.6,1.6,0,0,0,0,1.32,6.34,6.34,0,0,0,5.71,3.71,5.31,5.31,0,0,0,5.14-4.12,1.93,1.93,0,0,0-.25-1.35,1,1,0,0,0-1-.34,4.38,4.38,0,0,0-2,1.71A15.79,15.79,0,0,0,185.58,526.12Z"/><path class="cls-12" d="M275.73,378.49s12,42.63-20.69,50l-52.13.51-31.48,84-31.38-2.19,11.47-94.39a27.81,27.81,0,0,1,21.69-24l67.52-14.76Z"/><path class="cls-1" d="M177.77,190.73c-23.76-4.08-26,17.41-25.81,23.57s2.26,11.63,4.44,17.41.79,13.65-1,19.54c-2.14,6.89-9,13.22-6.51,20,1.91,5.34,9,8,9.82,13.56.69,4.43-2.88,8.29-4.2,12.58-2.49,8.09,3.21,16.2,8.57,22.76,2.21,2.7,4.89,5.64,8.38,5.69,4.83.07,7.7-5.16,9.88-9.47a82.5,82.5,0,0,1,25.95-30"/><path class="cls-1" d="M124.36,322.14l-14-14.16a1,1,0,0,0-1-.27L93.14,311.9a1,1,0,0,0-.76,1.2,1.05,1.05,0,0,0,.28.49l26.86,28s20.1-5.47,19.5-5.73S124.36,322.14,124.36,322.14Z"/><path class="cls-10" d="M105.17,329.68l.3-.77a2.11,2.11,0,0,1,2.07-1.32c3.27.17,10.72.6,10.71.86a2.14,2.14,0,0,1-1.28,2.74,1.56,1.56,0,0,1-.37.1c-2.33.61-6.57,0-6.57,0l3.48,4,1.12-1.5a1.62,1.62,0,0,1,1.32-.46l6.15.73s.55,2.4-1.28,2.79a16.55,16.55,0,0,1-4.1.18l-.71,4.52,6.49,5-2.37,3.63-8.59-4.34-1.38-4.4a2.05,2.05,0,0,1,.11-1.52l.46-1-1.64-1.14a2.11,2.11,0,0,1-.88-2.08l.21-1.23L105.71,332A2.09,2.09,0,0,1,105.17,329.68Z"/><polygon class="cls-10" points="133.57 342.48 133.57 342.48 129.3 338.85 116.72 337.04 116.01 341.56 111.54 345.85 128.54 354.44 133.57 342.48"/><path class="cls-10" d="M127.45,323.13a3.52,3.52,0,0,0,2.47-.82l.7-.58a4.71,4.71,0,0,1,4.79-1.74l9.68,3.75,10.43,8.45-5.19,13.08-18-4.66a7.29,7.29,0,0,1-4.52-3.49l-1.72-3.05s-6.12-2.38-5.61-5.79L107.1,325.5a2,2,0,0,1,1-2.64l.16-.06C110,322.09,123.11,322.85,127.45,323.13Z"/><path class="cls-13" d="M130.31,330.31c0,.18-5.25-.76-11.65-2.09s-11.56-2.54-11.52-2.72,5.25.77,11.65,2.1S130.34,330.14,130.31,330.31Z"/><path class="cls-13" d="M131,336.51a8.3,8.3,0,0,1-2.47-1.1c-1.31-.66-2.41-1.15-2.35-1.33s1.27.07,2.64.76A5.06,5.06,0,0,1,131,336.51Z"/><path class="cls-13" d="M118.63,344.73a22.78,22.78,0,0,1-3.15-3.06l-.09-.1v-.14c.21-1.15.38-2.41.73-3.9a1.45,1.45,0,0,1,.68-.82,2.86,2.86,0,0,1,.91-.2l1.57-.1a8.65,8.65,0,0,1,1.44,0,1.41,1.41,0,0,0,1-.23,1.76,1.76,0,0,0,.47-1.45c0-.41-.14-.6-.1-.63s.24.15.34.59a2,2,0,0,1-.41,1.84,1.85,1.85,0,0,1-1.32.41,8.92,8.92,0,0,0-1.37.08l-1.54.15c-.57.05-.91.14-1,.61-.3,1.29-.54,2.68-.78,3.79l-.07-.25A23.33,23.33,0,0,1,118.63,344.73Z"/><path class="cls-10" d="M109.1,329.67c1.08,1.61,8,1.84,8.65,1.72a2.1,2.1,0,0,1,1.62.29.92.92,0,0,1,.24,1.28.89.89,0,0,1-.41.33l-6.28,2.65Z"/><path class="cls-13" d="M118,333.58c0,.07-.34.08-.91.09h-1a2.8,2.8,0,0,0-.58.08,1.29,1.29,0,0,0-.28.08l-.09.05v-.09l0,.15c-.38.62-.83,1.31-1.33,2-1.8,2.58-3.58,4.41-3.71,4.3s1.4-2.12,3.19-4.67c.47-.68.92-1.32,1.36-2v.15c.06-.3.16-.28.24-.36l.21-.11a1.61,1.61,0,0,1,.38-.08,3.75,3.75,0,0,1,.67,0,8.44,8.44,0,0,1,1,.09C117.66,333.41,118,333.52,118,333.58Z"/><path class="cls-13" d="M118.5,331.35c0,.17-2.5.29-5.56.25a4.86,4.86,0,0,0-2,.21,2.63,2.63,0,0,0-1.23,1c-.54.79-.79,1.39-.89,1.35a3,3,0,0,1,.51-1.59,2.81,2.81,0,0,1,1.38-1.3A5,5,0,0,1,113,331C116,331,118.51,331.17,118.5,331.35Z"/><g class="cls-4"><path d="M205.35,360.4c2.62.28,6.51-.76,8.25-2.74s3.7-4,4.83-6.42c2.4-5,6.69-11.59,8.85-15.71.13,1.2-3.47,13.1-3.8,18.86-.18,3.16,0,6.57,2,9.06,1.34,1.72,3.36,2.78,4.84,4.38a9.52,9.52,0,0,1,.67,11.64c-1.27,1.75-3.55,3.08-5.57,2.31a4.84,4.84,0,0,1-2.44-2.42,24.26,24.26,0,0,1-1.21-3.31,22.25,22.25,0,0,0-9.17-11.53,68.35,68.35,0,0,0-6.84-4.31"/></g><path class="cls-3" d="M127.66,356.61l26.77,9a27.17,27.17,0,0,0,27.39-6l9.46-9-28-7.55-15,1.69-13.85-4.44Z"/><path class="cls-2" d="M155,351.89s.44.66,1.18,1.71a27.83,27.83,0,0,0,7.07,7c1.06.73,1.75,1.12,1.73,1.16a2,2,0,0,1-.51-.23c-.32-.17-.78-.43-1.32-.78A24,24,0,0,1,156,353.7c-.28-.42-.54-.85-.78-1.3A3,3,0,0,1,155,351.89Z"/><path class="cls-2" d="M160.81,354.31a10,10,0,0,0,.24,3.08,10.65,10.65,0,0,0,1.34,2.78,5.12,5.12,0,0,1-1.59-2.71A5.21,5.21,0,0,1,160.81,354.31Z"/><path class="cls-2" d="M158.07,352.31c.08,0,.11,1.22.47,2.66s.9,2.53.83,2.57a7,7,0,0,1-1.08-2.51A6.76,6.76,0,0,1,158.07,352.31Z"/><path class="cls-2" d="M156.72,357.76a8.67,8.67,0,0,1,4.32,1.31c0,.07-1-.34-2.15-.7S156.71,357.83,156.72,357.76Z"/><path class="cls-2" d="M154.17,354.61a7.68,7.68,0,0,1,2.69,1,7.52,7.52,0,0,1,2.26,1.78c-.05.06-1-.78-2.39-1.55S154.14,354.69,154.17,354.61Z"/><path class="cls-2" d="M157.2,357.8a2.07,2.07,0,0,0-1.14-.66c-.16,0-.35,0-.42.11a.28.28,0,0,0,.11.33.66.66,0,0,0,.36.11,2.5,2.5,0,0,0-.53.3c-.07.06-.15.15-.11.23s.15.08.24.06l.6-.12c0,.1-.16.13-.26.2s-.16.2-.08.27a.23.23,0,0,0,.25,0,3.13,3.13,0,0,0,.91-.79"/><path class="cls-2" d="M158,352.64a.12.12,0,0,0,0,.17l0,0a.17.17,0,0,0,.21,0,.45.45,0,0,0,.14-.19,3.22,3.22,0,0,0,.43-1.24.28.28,0,0,0-.08-.26c-.08-.06-.2,0-.29.05a1.07,1.07,0,0,0-.43.86,1.67,1.67,0,0,0,0-.83.21.21,0,0,0-.21-.2c-.11,0-.13.13-.15.22a2.08,2.08,0,0,0,0,.86,1,1,0,0,0-.5-.67.24.24,0,0,0-.23,0,.2.2,0,0,0-.07.2.42.42,0,0,0,.11.18,4.46,4.46,0,0,0,1.15,1.06"/><path class="cls-2" d="M155.05,351.88c-.06.06,0,.19.09.21a.22.22,0,0,0,.24-.12.51.51,0,0,0,.06-.27,3.86,3.86,0,0,0-.18-1.58.38.38,0,0,0-.23-.26.37.37,0,0,0-.3.21,1.27,1.27,0,0,0,0,1.17,1.94,1.94,0,0,0-.49-.9c-.09-.1-.23-.19-.34-.12s-.09.21-.05.32a2.38,2.38,0,0,0,.49.93,1.19,1.19,0,0,0-.93-.49.34.34,0,0,0-.27.1.21.21,0,0,0,0,.24.69.69,0,0,0,.22.16,5.91,5.91,0,0,0,1.87.59"/><path class="cls-2" d="M139.16,344.41s-.21.76-.53,2a29.42,29.42,0,0,0-.78,4.93,28.79,28.79,0,0,0,.11,5c.14,1.28.3,2.06.25,2.06a2.46,2.46,0,0,1-.15-.53c-.12-.5-.21-1-.28-1.51a23.24,23.24,0,0,1-.18-5,24.23,24.23,0,0,1,.86-5,12.31,12.31,0,0,1,.48-1.45A3.16,3.16,0,0,1,139.16,344.41Z"/><path class="cls-2" d="M141.11,350.37a10.24,10.24,0,0,0-2.17,2.19,11.14,11.14,0,0,0-1.23,2.83,5.29,5.29,0,0,1,1-3A5.15,5.15,0,0,1,141.11,350.37Z"/><path class="cls-2" d="M140.83,347c.06.06-.84.88-1.7,2.1s-1.33,2.34-1.4,2.31a6.7,6.7,0,0,1,1.19-2.46A7,7,0,0,1,140.83,347Z"/><path class="cls-2" d="M135.83,349.53a5.87,5.87,0,0,1,1.19,1.94,6.38,6.38,0,0,1,.64,2.18c-.07,0-.37-.94-.88-2.08S135.77,349.57,135.83,349.53Z"/><path class="cls-2" d="M136.54,345.54a9.38,9.38,0,0,1,1.13,5.58c-.07,0-.07-1.28-.38-2.82S136.47,345.57,136.54,345.54Z"/><path class="cls-2" d="M136.11,349.92a2.09,2.09,0,0,0-.25-1.3c-.07-.13-.2-.27-.35-.24a.27.27,0,0,0-.18.3.74.74,0,0,0,.15.34,2.27,2.27,0,0,0-.57-.2c-.09,0-.21,0-.25.07s0,.16.11.21l.49.38a.55.55,0,0,1-.32-.07.17.17,0,0,0-.26.12c0,.12.09.14.18.18a3.21,3.21,0,0,0,1.19.17"/><path class="cls-2" d="M140.54,347.15c-.07,0-.16,0-.15.11a.17.17,0,0,0,.15.16h.23a3.17,3.17,0,0,0,1.22-.49c.08-.06.16-.13.15-.23s-.13-.16-.23-.18a1.07,1.07,0,0,0-.94.23,1.59,1.59,0,0,0,.61-.57c0-.09.09-.22,0-.29s-.18,0-.27,0a2.09,2.09,0,0,0-.63.59.9.9,0,0,0,.18-.82.21.21,0,0,0-.13-.19.18.18,0,0,0-.19.08.5.5,0,0,0-.08.2,4.54,4.54,0,0,0,0,1.56"/><path class="cls-2" d="M139.19,344.42a.14.14,0,0,0-.1.21.24.24,0,0,0,.25.1.7.7,0,0,0,.24-.13,4.05,4.05,0,0,0,1.08-1.18.38.38,0,0,0,0-.33.33.33,0,0,0-.35-.1,1.25,1.25,0,0,0-.91.74,1.83,1.83,0,0,0,.37-1c0-.13,0-.3-.14-.34s-.21.07-.28.17a2.7,2.7,0,0,0-.38,1,1.24,1.24,0,0,0-.24-1,.32.32,0,0,0-.25-.15.22.22,0,0,0-.16.19.61.61,0,0,0,0,.27,6.55,6.55,0,0,0,.78,1.8"/><path class="cls-3" d="M256.56,340.86a27.09,27.09,0,0,1-6.51-19.22c0-.44.07-.88.11-1.33,1.72-15.94,4.83-41.93-1.31-54.84-4-8.48-29.09-12.46-29.09-12.46l-29,6-13.32,11.67a12.11,12.11,0,0,0-4,7.17l-12.18,76L186,352l1.9-22,2.75,29.13s23.43,18.22,31,21.59,20.88-6,31.12-1.85,23.54,0,23.54,0C276.88,366.72,263.79,349.45,256.56,340.86Z"/><path class="cls-3" d="M234.15,261.89l-37.28,67.57-40.27.7-6.85,17.19,52.06,12c6,1,10.51.26,14.33-4.42L250.39,291S253.13,262.65,234.15,261.89Z"/><g class="cls-4"><path d="M132.61,344.73l10.74,2.83a3.69,3.69,0,0,1,2.7,4.23h0a3.71,3.71,0,0,0,3,4.31l.14,0c9.16,1.26,31.67,4.32,32.1,3.93s4.4-4.45,4.4-4.45l-35.94-8.25.58-2.08-16.2-4.21Z"/></g><path class="cls-1" d="M189,329.6a5.3,5.3,0,0,1-.5-1.08l-1.24-3.08.06.09a17.52,17.52,0,0,1-4.6-5.73,20.65,20.65,0,0,1-2-9.44c0-3,.29-5.78.37-8.33a29.58,29.58,0,0,0-.4-6.71,18.74,18.74,0,0,0-2.18-5.78,2,2,0,0,1,.29.33,8.63,8.63,0,0,1,.71,1,14.64,14.64,0,0,1,1.63,4.33,27.86,27.86,0,0,1,.54,6.82c0,2.57-.32,5.38-.32,8.31a20.47,20.47,0,0,0,1.85,9.18,18,18,0,0,0,4.33,5.69h0v.05c.43,1.26.78,2.3,1.06,3.14A4.3,4.3,0,0,1,189,329.6Z"/><path class="cls-1" d="M246.92,342.05a5.09,5.09,0,0,1,.18,1.34,21.67,21.67,0,0,1-.08,3.69,25.4,25.4,0,0,1-13,19.64,20.76,20.76,0,0,1-3.36,1.53,4.33,4.33,0,0,1-1.31.36c0-.11,1.8-.7,4.44-2.28A26.51,26.51,0,0,0,246.57,347C247,344,246.8,342.05,246.92,342.05Z"/><path class="cls-2" d="M231.65,285.16a4.83,4.83,0,0,1-.37.62c-.25.39-.61,1-1,1.69a36.53,36.53,0,0,0-2.72,5.89,35.81,35.81,0,0,0-1.6,6.29c-.14.82-.23,1.49-.28,2a5.52,5.52,0,0,1-.1.71,2.89,2.89,0,0,1,0-.72,19.06,19.06,0,0,1,.19-2,31,31,0,0,1,1.54-6.35,32.19,32.19,0,0,1,2.8-5.9c.44-.71.82-1.28,1.1-1.65A2.77,2.77,0,0,1,231.65,285.16Z"/><path class="cls-2" d="M232,293.29a12.22,12.22,0,0,0-3.51,1.95,12.07,12.07,0,0,0-2.49,3.15,3.41,3.41,0,0,1,.47-1.11,8.72,8.72,0,0,1,1.86-2.24,8.42,8.42,0,0,1,2.51-1.46A3.36,3.36,0,0,1,232,293.29Z"/><path class="cls-2" d="M232.83,289a30.88,30.88,0,0,0-2.88,2c-1.49,1.24-2.48,2.47-2.54,2.42a3.16,3.16,0,0,1,.59-.85,12.41,12.41,0,0,1,1.78-1.77,13.4,13.4,0,0,1,2.1-1.39A3,3,0,0,1,232.83,289Z"/><path class="cls-2" d="M225.69,290.39a12.37,12.37,0,0,1,.84,5.8c-.08,0-.09-1.32-.33-2.91S225.62,290.41,225.69,290.39Z"/><path class="cls-2" d="M228,285.66a3.55,3.55,0,0,1,.2,1.07,14.66,14.66,0,0,1,0,2.65,14.38,14.38,0,0,1-.44,2.61,3.63,3.63,0,0,1-.36,1c-.08,0,.39-1.63.54-3.67S227.89,285.66,228,285.66Z"/><path class="cls-2" d="M225.91,291a2.78,2.78,0,0,0,.13-1.71.44.44,0,0,0-.35-.43.35.35,0,0,0-.33.31,1.12,1.12,0,0,0,.06.48,2.84,2.84,0,0,0-.64-.45c-.11-.05-.26-.09-.33,0s0,.22.06.31.32.43.49.64c-.15,0-.26-.12-.38-.19s-.33-.09-.38.05.07.21.17.28a3.54,3.54,0,0,0,1.43.63"/><path class="cls-2" d="M232.41,289.06a.15.15,0,0,0-.21,0,.14.14,0,0,0,0,.06.23.23,0,0,0,.13.24.78.78,0,0,0,.3.07,4.41,4.41,0,0,0,1.69-.19.3.3,0,0,0,.27-.24c0-.13-.1-.24-.22-.31a1.4,1.4,0,0,0-1.26,0,2,2,0,0,0,1-.5c.1-.1.19-.24.12-.36s-.23-.09-.34,0a2.64,2.64,0,0,0-1,.51,1.23,1.23,0,0,0,.51-1,.3.3,0,0,0-.1-.28.26.26,0,0,0-.27,0,.73.73,0,0,0-.16.23,6,6,0,0,0-.6,1.94"/><path class="cls-2" d="M231.68,285.18a.19.19,0,0,0-.2.23.28.28,0,0,0,.27.21.72.72,0,0,0,.35-.08,5.1,5.1,0,0,0,1.76-1.09c.1-.11.21-.25.17-.4s-.24-.23-.4-.25a1.67,1.67,0,0,0-1.4.61,2.38,2.38,0,0,0,.79-1.06c.06-.16.09-.38-.05-.47s-.29,0-.41.11a3.56,3.56,0,0,0-.82,1.1,1.57,1.57,0,0,0,.06-1.37c-.05-.12-.13-.25-.26-.27a.28.28,0,0,0-.27.18.66.66,0,0,0-.06.34,7.71,7.71,0,0,0,.34,2.52"/><path class="cls-2" d="M197.38,306.17a5,5,0,0,1-.37.63c-.26.39-.61,1-1,1.69a35.73,35.73,0,0,0-4.33,12.18c-.13.82-.22,1.49-.27,1.95a3.59,3.59,0,0,1-.11.72,4.45,4.45,0,0,1,0-.73c0-.46.09-1.14.19-2a32.34,32.34,0,0,1,1.55-6.35,31.88,31.88,0,0,1,2.8-5.9c.44-.71.82-1.27,1.1-1.65A3.84,3.84,0,0,1,197.38,306.17Z"/><path class="cls-2" d="M197.72,314.31a12.22,12.22,0,0,0-3.51,1.95,12.86,12.86,0,0,0-2.5,3.14,3.72,3.72,0,0,1,.48-1.1,8.18,8.18,0,0,1,1.86-2.24,8.4,8.4,0,0,1,2.5-1.47A3.64,3.64,0,0,1,197.72,314.31Z"/><path class="cls-2" d="M198.56,310a34.38,34.38,0,0,0-2.89,2c-1.5,1.23-2.47,2.47-2.53,2.42a3.21,3.21,0,0,1,.59-.86,11.85,11.85,0,0,1,1.78-1.76,12.65,12.65,0,0,1,2.09-1.39A3.71,3.71,0,0,1,198.56,310Z"/><path class="cls-2" d="M191.42,311.41a9.12,9.12,0,0,1,.76,2.85,9.42,9.42,0,0,1,.08,2.95c-.08,0-.1-1.32-.33-2.92S191.35,311.43,191.42,311.41Z"/><path class="cls-2" d="M193.7,306.67a4,4,0,0,1,.2,1.08,14.66,14.66,0,0,1,0,2.65,14.38,14.38,0,0,1-.44,2.61,4.42,4.42,0,0,1-.36,1c-.08,0,.39-1.62.54-3.66S193.62,306.68,193.7,306.67Z"/><path class="cls-2" d="M191.63,312a2.71,2.71,0,0,0,.14-1.71c-.05-.19-.16-.41-.36-.42a.35.35,0,0,0-.33.31,1.12,1.12,0,0,0,.07.48,2.84,2.84,0,0,0-.64-.45c-.11-.06-.26-.1-.33,0s0,.21.06.31l.48.64c-.14,0-.25-.12-.38-.2s-.32-.08-.37.06.07.21.17.28a3.82,3.82,0,0,0,1.43.63"/><path class="cls-2" d="M198.14,310.08a.15.15,0,0,0-.21,0s0,0,0,.05a.24.24,0,0,0,.13.25.58.58,0,0,0,.29.06,4.27,4.27,0,0,0,1.7-.19.3.3,0,0,0,.27-.23c0-.12-.1-.25-.22-.31a1.4,1.4,0,0,0-1.26,0,2,2,0,0,0,1-.5c.1-.09.19-.24.12-.35s-.23-.09-.35-.06a2.79,2.79,0,0,0-1,.51,1.18,1.18,0,0,0,.51-1,.33.33,0,0,0-.1-.28.26.26,0,0,0-.27,0,.63.63,0,0,0-.16.23,6,6,0,0,0-.61,1.93"/><path class="cls-2" d="M197.41,306.2a.2.2,0,0,0-.21.22.32.32,0,0,0,.28.22,1.05,1.05,0,0,0,.35-.08,5.1,5.1,0,0,0,1.76-1.09.49.49,0,0,0,.17-.41.42.42,0,0,0-.4-.24,1.64,1.64,0,0,0-1.4.61,2.46,2.46,0,0,0,.79-1.07c.06-.15.09-.37-.05-.47s-.29,0-.41.12a3.52,3.52,0,0,0-.82,1.09,1.55,1.55,0,0,0,.06-1.36.37.37,0,0,0-.26-.27.27.27,0,0,0-.27.17.84.84,0,0,0-.07.35,8,8,0,0,0,.35,2.52"/><path class="cls-2" d="M199,343a5.87,5.87,0,0,1,.72-.08c.47,0,1.14-.09,2-.18a37.14,37.14,0,0,0,6.35-1.33,36.06,36.06,0,0,0,6-2.47c.74-.38,1.33-.71,1.73-.94a3.09,3.09,0,0,1,.65-.34,4.86,4.86,0,0,1-.59.42c-.39.26-1,.62-1.7,1a31.36,31.36,0,0,1-6,2.55,32.39,32.39,0,0,1-6.4,1.27c-.84.07-1.51.1-2,.1A3.22,3.22,0,0,1,199,343Z"/><path class="cls-2" d="M205.34,337.91a12.36,12.36,0,0,0,3.66,1.66,12.49,12.49,0,0,0,4,.13,3.92,3.92,0,0,1-1.17.28,8.45,8.45,0,0,1-5.58-1.3A4,4,0,0,1,205.34,337.91Z"/><path class="cls-2" d="M201.37,339.82c0-.07,1.45.66,3.32,1.13s3.47.51,3.46.59a3.35,3.35,0,0,1-1,0,12.93,12.93,0,0,1-2.48-.38,13.3,13.3,0,0,1-2.36-.85A3.37,3.37,0,0,1,201.37,339.82Z"/><path class="cls-2" d="M206.78,344.7a8.93,8.93,0,0,1,1.83-2.31,9.53,9.53,0,0,1,2.32-1.82c0,.06-1,.86-2.14,2S206.84,344.75,206.78,344.7Z"/><path class="cls-2" d="M201.61,345.7a3.61,3.61,0,0,1,.75-.81,14.26,14.26,0,0,1,2.1-1.61,15,15,0,0,1,2.36-1.2,3.89,3.89,0,0,1,1.05-.33c0,.08-1.54.65-3.27,1.75S201.67,345.75,201.61,345.7Z"/><path class="cls-2" d="M207.12,344.18a2.78,2.78,0,0,0-1.46.91c-.12.15-.23.37-.12.54a.35.35,0,0,0,.44.08,1,1,0,0,0,.35-.34,2.55,2.55,0,0,0,0,.78c0,.12.07.27.19.27s.18-.13.22-.24.15-.51.22-.77a.79.79,0,0,1,.07.43c0,.14.13.31.27.26s.13-.18.13-.3a3.8,3.8,0,0,0-.35-1.52"/><path class="cls-2" d="M201.7,340.1a.16.16,0,0,0,.22.13A.23.23,0,0,0,202,340a.66.66,0,0,0-.12-.27,4.61,4.61,0,0,0-1.16-1.25c-.11-.06-.24-.13-.35-.07a.36.36,0,0,0-.12.36,1.4,1.4,0,0,0,.72,1,2,2,0,0,0-1-.47c-.13,0-.31,0-.36.12s.07.23.16.31a2.75,2.75,0,0,0,1,.49,1.22,1.22,0,0,0-1.08.16.32.32,0,0,0-.17.26.26.26,0,0,0,.19.19.66.66,0,0,0,.28,0,6.21,6.21,0,0,0,1.91-.67"/><path class="cls-2" d="M199,343a.18.18,0,0,0,.26.05l.05-.05a.29.29,0,0,0,0-.35.67.67,0,0,0-.27-.23,5.09,5.09,0,0,0-1.92-.76.48.48,0,0,0-.43.1.44.44,0,0,0,0,.47A1.65,1.65,0,0,0,198,343a2.46,2.46,0,0,0-1.32,0c-.16,0-.36.15-.34.32s.18.23.33.26a3.51,3.51,0,0,0,1.37,0,1.53,1.53,0,0,0-1.14.76.41.41,0,0,0-.05.37.27.27,0,0,0,.3.12.92.92,0,0,0,.31-.16,7.69,7.69,0,0,0,1.82-1.78"/><path class="cls-2" d="M237,369.91a3.31,3.31,0,0,1,.7.2c.44.15,1.09.35,1.89.57a35.82,35.82,0,0,0,12.87,1.17c.83-.08,1.5-.16,2-.23a6,6,0,0,1,.73-.07,3.5,3.5,0,0,1-.71.17c-.46.1-1.13.21-2,.31a31.83,31.83,0,0,1-12.94-1.18c-.63-.19-1.26-.4-1.87-.65A5.65,5.65,0,0,1,237,369.91Z"/><path class="cls-2" d="M244.77,367.55a12,12,0,0,0,2.76,2.92,11.77,11.77,0,0,0,3.67,1.64,3.44,3.44,0,0,1-1.19-.18,8.51,8.51,0,0,1-4.68-3.31A3.32,3.32,0,0,1,244.77,367.55Z"/><path class="cls-2" d="M240.37,367.81c.06-.05,1.09,1.16,2.65,2.31s3,1.78,3,1.86a3.54,3.54,0,0,1-1-.37,13.06,13.06,0,0,1-4-3A3.61,3.61,0,0,1,240.37,367.81Z"/><path class="cls-2" d="M243.52,374.38a9.06,9.06,0,0,1,2.57-1.45,9.7,9.7,0,0,1,2.84-.8c0,.07-1.25.42-2.74,1S243.56,374.44,243.52,374.38Z"/><path class="cls-2" d="M238.37,373.35a3.81,3.81,0,0,1,1-.47,14.24,14.24,0,0,1,2.56-.69,14.63,14.63,0,0,1,2.64-.22,4,4,0,0,1,1.09.09c0,.08-1.67,0-3.69.38S238.4,373.42,238.37,373.35Z"/><path class="cls-2" d="M244,374a2.69,2.69,0,0,0-1.69.29c-.18.09-.36.25-.32.45a.34.34,0,0,0,.37.24.93.93,0,0,0,.45-.18,3.21,3.21,0,0,0-.27.73c0,.12,0,.27.08.32s.21-.05.28-.14l.51-.62a1.45,1.45,0,0,1-.1.41c0,.13,0,.34.14.35s.19-.12.24-.23a3.67,3.67,0,0,0,.25-1.54"/><path class="cls-2" d="M240.57,368.2c0,.09.05.2.15.2a.22.22,0,0,0,.2-.19.76.76,0,0,0,0-.3,4.37,4.37,0,0,0-.6-1.6c-.07-.1-.17-.21-.29-.2a.34.34,0,0,0-.25.29,1.4,1.4,0,0,0,.28,1.23,2.22,2.22,0,0,0-.72-.8c-.12-.08-.29-.13-.38,0s0,.24,0,.35a2.8,2.8,0,0,0,.74.83,1.27,1.27,0,0,0-1.06-.26.34.34,0,0,0-.24.18.25.25,0,0,0,.09.25.82.82,0,0,0,.26.1,5.85,5.85,0,0,0,2,.1"/><path class="cls-2" d="M237,369.87a.19.19,0,0,0,.27.14.31.31,0,0,0,.14-.32.76.76,0,0,0-.17-.32,5.08,5.08,0,0,0-1.49-1.43.44.44,0,0,0-.43-.06c-.15.08-.16.28-.14.45a1.67,1.67,0,0,0,.94,1.2,2.39,2.39,0,0,0-1.23-.5c-.17,0-.39,0-.44.16s.09.28.21.37a3.71,3.71,0,0,0,1.27.52,1.59,1.59,0,0,0-1.35.28.42.42,0,0,0-.19.32.29.29,0,0,0,.24.22,1,1,0,0,0,.35,0,8.19,8.19,0,0,0,2.36-1"/><path class="cls-2" d="M220.47,313.55s.05.79.17,2.07a29.28,29.28,0,0,0,.91,4.91,28.58,28.58,0,0,0,1.77,4.67,19.42,19.42,0,0,1,.93,1.86,2.15,2.15,0,0,1-.33-.46c-.2-.3-.46-.75-.76-1.32a24.54,24.54,0,0,1-1.86-4.68,23.55,23.55,0,0,1-.84-5,12.85,12.85,0,0,1,0-1.52A2.35,2.35,0,0,1,220.47,313.55Z"/><path class="cls-2" d="M224.29,318.52a8.36,8.36,0,0,0-1.52,5.87,6.21,6.21,0,0,1,1.52-5.87Z"/><path class="cls-2" d="M222.91,315.42c.06,0-.51,1.11-.91,2.54s-.48,2.65-.55,2.65a6.6,6.6,0,0,1,.3-2.72A6.31,6.31,0,0,1,222.91,315.42Z"/><path class="cls-2" d="M219,319.49a5.84,5.84,0,0,1,1.77,1.43,6.41,6.41,0,0,1,1.33,1.85c-.06,0-.67-.77-1.52-1.67S219,319.54,219,319.49Z"/><path class="cls-2" d="M218.37,315.49a7.32,7.32,0,0,1,1.83,2.23,7.56,7.56,0,0,1,1.09,2.66c-.08,0-.5-1.18-1.31-2.53S218.32,315.54,218.37,315.49Z"/><path class="cls-2" d="M219.43,319.76a2.09,2.09,0,0,0-.67-1.14c-.11-.1-.28-.19-.41-.11a.27.27,0,0,0-.07.34.75.75,0,0,0,.25.28,2,2,0,0,0-.6,0c-.09,0-.2.05-.21.14s.1.14.18.17l.59.19a.47.47,0,0,1-.33,0c-.11,0-.24.1-.21.2s.14.11.23.11a3,3,0,0,0,1.18-.24"/><path class="cls-2" d="M222.68,315.67a.12.12,0,0,0-.1.16.19.19,0,0,0,.19.1.4.4,0,0,0,.21-.09,3.34,3.34,0,0,0,1-.87.29.29,0,0,0,.06-.27c0-.09-.17-.11-.27-.1a1.08,1.08,0,0,0-.81.54,1.59,1.59,0,0,0,.38-.74c0-.1,0-.24-.08-.28s-.18,0-.24.12a2,2,0,0,0-.4.76.93.93,0,0,0-.11-.84.22.22,0,0,0-.19-.12.18.18,0,0,0-.15.13.81.81,0,0,0,0,.22,4.76,4.76,0,0,0,.48,1.48"/><path class="cls-2" d="M220.5,313.55a.14.14,0,0,0,0,.19l0,0a.22.22,0,0,0,.27,0,.49.49,0,0,0,.18-.2,3.93,3.93,0,0,0,.63-1.47.36.36,0,0,0-.07-.33.33.33,0,0,0-.36,0,1.26,1.26,0,0,0-.61,1,1.89,1.89,0,0,0,0-1c0-.13-.11-.28-.24-.27s-.18.13-.2.25a2.65,2.65,0,0,0,0,1.05,1.2,1.2,0,0,0-.56-.89.33.33,0,0,0-.29-.05.2.2,0,0,0-.09.23.71.71,0,0,0,.11.25,6.08,6.08,0,0,0,1.34,1.43"/><path class="cls-2" d="M207.5,314.89s-.52.61-1.32,1.61a30.34,30.34,0,0,0-2.75,4.17,28.44,28.44,0,0,0-2,4.6c-.4,1.21-.58,2-.62,2a2.1,2.1,0,0,1,.08-.56c.07-.35.19-.86.37-1.48a24.2,24.2,0,0,1,4.74-8.82c.42-.49.78-.87,1-1.12A2.15,2.15,0,0,1,207.5,314.89Z"/><path class="cls-2" d="M206.81,321.13a8.2,8.2,0,0,0-5.17,3.17,6,6,0,0,1,5.17-3.17Z"/><path class="cls-2" d="M208,317.93c0,.08-1.13.45-2.41,1.21s-2.18,1.57-2.23,1.52a6.42,6.42,0,0,1,2.1-1.74A6.64,6.64,0,0,1,208,317.93Z"/><path class="cls-2" d="M202.35,318.18a8.62,8.62,0,0,1,0,4.51c-.08,0,.05-1,.06-2.25S202.28,318.19,202.35,318.18Z"/><path class="cls-2" d="M204.64,314.84a7.51,7.51,0,0,1-.23,2.87,7.67,7.67,0,0,1-1.06,2.68c-.07,0,.46-1.2.81-2.74S204.56,314.84,204.64,314.84Z"/><path class="cls-2" d="M207.62,318a.12.12,0,0,0-.17,0l0,0a.22.22,0,0,0,.08.2.39.39,0,0,0,.21.08,3.21,3.21,0,0,0,1.31.06.26.26,0,0,0,.24-.15c0-.09-.05-.2-.14-.26a1.07,1.07,0,0,0-.95-.17,1.59,1.59,0,0,0,.79-.27c.08-.06.18-.16.13-.26s-.16-.09-.25-.08a2.15,2.15,0,0,0-.82.27,1,1,0,0,0,.5-.67.22.22,0,0,0-.05-.23.18.18,0,0,0-.2,0,.57.57,0,0,0-.15.16,4.57,4.57,0,0,0-.69,1.4"/><path class="cls-2" d="M207.52,314.91c-.09,0-.19.06-.18.15a.22.22,0,0,0,.18.2.66.66,0,0,0,.28,0,4,4,0,0,0,1.46-.63.36.36,0,0,0,.18-.28c0-.14-.16-.21-.28-.24a1.33,1.33,0,0,0-1.13.3,1.82,1.82,0,0,0,.72-.71c.07-.12.11-.28,0-.37s-.22,0-.32,0a2.55,2.55,0,0,0-.76.74,1.23,1.23,0,0,0,.21-1,.27.27,0,0,0-.17-.23.25.25,0,0,0-.23.1.61.61,0,0,0-.08.26,6.1,6.1,0,0,0,0,2"/><path class="cls-2" d="M223,260.09s-.52.61-1.31,1.62a27.48,27.48,0,0,0-2.75,4.16,28.44,28.44,0,0,0-2,4.6c-.39,1.22-.58,2-.62,2a2,2,0,0,1,.08-.55c.07-.36.19-.87.37-1.49a23.65,23.65,0,0,1,1.91-4.66,24.46,24.46,0,0,1,2.84-4.16c.31-.39.65-.76,1-1.12A2,2,0,0,1,223,260.09Z"/><path class="cls-2" d="M222.32,266.33a10.33,10.33,0,0,0-2.89,1.1,11.22,11.22,0,0,0-2.28,2.07A6,6,0,0,1,222.32,266.33Z"/><path class="cls-2" d="M223.46,263.13c0,.08-1.13.45-2.41,1.21s-2.18,1.58-2.23,1.52a8.54,8.54,0,0,1,4.64-2.73Z"/><path class="cls-2" d="M217.86,263.38a8.63,8.63,0,0,1,0,4.51c-.07,0,0-1,.06-2.25S217.79,263.39,217.86,263.38Z"/><path class="cls-2" d="M220.15,260a7.51,7.51,0,0,1-.23,2.87,7.67,7.67,0,0,1-1.06,2.68c-.07,0,.46-1.2.81-2.73S220.07,260,220.15,260Z"/><path class="cls-2" d="M223.13,263.16a.12.12,0,0,0-.17,0s0,0,0,0a.24.24,0,0,0,.08.21.9.9,0,0,0,.21.08,3.26,3.26,0,0,0,1.32.05.24.24,0,0,0,.23-.15c0-.1-.05-.19-.13-.26a1.09,1.09,0,0,0-1-.17,1.59,1.59,0,0,0,.79-.27c.09-.06.18-.16.13-.26s-.16-.09-.25-.08a2.15,2.15,0,0,0-.82.27.92.92,0,0,0,.51-.67.27.27,0,0,0,0-.23.2.2,0,0,0-.21,0,.57.57,0,0,0-.15.16,4.57,4.57,0,0,0-.69,1.4"/><path class="cls-2" d="M223,260.12c-.09-.05-.19.05-.18.14a.22.22,0,0,0,.18.2.66.66,0,0,0,.28,0,3.73,3.73,0,0,0,1.46-.63.33.33,0,0,0,.18-.28.31.31,0,0,0-.28-.23,1.26,1.26,0,0,0-1.13.29,1.82,1.82,0,0,0,.72-.71c.07-.12.12-.28,0-.37s-.22,0-.32,0a2.55,2.55,0,0,0-.76.74,1.23,1.23,0,0,0,.21-1,.29.29,0,0,0-.17-.24.25.25,0,0,0-.23.1.61.61,0,0,0-.08.26,6.1,6.1,0,0,0,0,2"/><path class="cls-2" d="M175.16,336s.05.8.17,2.07a27.93,27.93,0,0,0,2.68,9.58,16.37,16.37,0,0,1,.92,1.86,2.83,2.83,0,0,1-.32-.45c-.2-.3-.46-.76-.76-1.33a23.9,23.9,0,0,1-1.86-4.68,23.55,23.55,0,0,1-.84-5c0-.65-.05-1.17,0-1.53A1.81,1.81,0,0,1,175.16,336Z"/><path class="cls-2" d="M179,341a8.36,8.36,0,0,0-1.52,5.87,5.26,5.26,0,0,1,0-3.14A5.1,5.1,0,0,1,179,341Z"/><path class="cls-2" d="M177.59,337.9c.07,0-.5,1.11-.9,2.55s-.48,2.64-.56,2.64a8.56,8.56,0,0,1,1.46-5.19Z"/><path class="cls-2" d="M173.73,342a5.92,5.92,0,0,1,1.76,1.43,6.45,6.45,0,0,1,1.34,1.85c-.07,0-.67-.77-1.52-1.67S173.68,342,173.73,342Z"/><path class="cls-2" d="M173.06,338a7.89,7.89,0,0,1,1.83,2.23A7.61,7.61,0,0,1,176,342.9c-.08,0-.5-1.19-1.31-2.54S173,338,173.06,338Z"/><path class="cls-2" d="M174.12,342.24a2.09,2.09,0,0,0-.67-1.14c-.11-.1-.28-.19-.41-.1a.24.24,0,0,0-.07.33.75.75,0,0,0,.25.28,2,2,0,0,0-.6,0c-.09,0-.21.05-.21.15s.09.13.18.16a5.8,5.8,0,0,0,.59.19c-.1.07-.22,0-.33.05s-.25.09-.21.2.14.1.23.1a2.8,2.8,0,0,0,1.18-.24"/><path class="cls-2" d="M177.37,338.15a.12.12,0,0,0-.1.16.18.18,0,0,0,.19.1.4.4,0,0,0,.21-.09,3.34,3.34,0,0,0,1-.87.29.29,0,0,0,.06-.27.3.3,0,0,0-.28-.1,1.06,1.06,0,0,0-.8.54,1.59,1.59,0,0,0,.38-.74c0-.1,0-.24-.09-.28s-.18,0-.24.12a2.13,2.13,0,0,0-.4.76.94.94,0,0,0-.1-.83c0-.07-.11-.14-.19-.13a.18.18,0,0,0-.15.13.41.41,0,0,0,0,.22,4.9,4.9,0,0,0,.48,1.49"/><path class="cls-2" d="M175.19,336a.14.14,0,0,0,0,.19l0,0a.22.22,0,0,0,.27,0,.6.6,0,0,0,.18-.21,4,4,0,0,0,.63-1.46.48.48,0,0,0-.08-.34c-.08-.08-.25,0-.36,0a1.3,1.3,0,0,0-.61,1,1.89,1.89,0,0,0,0-1c0-.13-.11-.28-.24-.27s-.18.14-.21.25a2.7,2.7,0,0,0,0,1.06,1.18,1.18,0,0,0-.57-.89.26.26,0,0,0-.28-.05.2.2,0,0,0-.09.22.71.71,0,0,0,.11.25,6.12,6.12,0,0,0,1.34,1.44"/><path class="cls-2" d="M234.88,342.33s.05.8.17,2.07a29.28,29.28,0,0,0,.91,4.91,27.69,27.69,0,0,0,1.77,4.67,18.75,18.75,0,0,1,.93,1.87,3.83,3.83,0,0,1-.33-.46c-.2-.3-.46-.75-.76-1.32a24,24,0,0,1-2.7-9.65v-1.53A2.1,2.1,0,0,1,234.88,342.33Z"/><path class="cls-2" d="M238.71,347.3a8.31,8.31,0,0,0-1.53,5.87,6,6,0,0,1,1.53-5.87Z"/><path class="cls-2" d="M237.32,344.21c.07,0-.51,1.11-.91,2.54s-.47,2.65-.55,2.64a6.71,6.71,0,0,1,.31-2.71A6.43,6.43,0,0,1,237.32,344.21Z"/><path class="cls-2" d="M233.45,348.27a6.16,6.16,0,0,1,1.77,1.44,5.9,5.9,0,0,1,1.33,1.84c-.06,0-.66-.77-1.52-1.67S233.41,348.33,233.45,348.27Z"/><path class="cls-2" d="M232.79,344.28a7.37,7.37,0,0,1,1.82,2.22,7.61,7.61,0,0,1,1.09,2.67c-.07,0-.5-1.19-1.31-2.54S232.73,344.33,232.79,344.28Z"/><path class="cls-2" d="M233.85,348.54a2.19,2.19,0,0,0-.67-1.13c-.12-.1-.29-.19-.42-.11a.27.27,0,0,0-.07.34.75.75,0,0,0,.26.27,3.11,3.11,0,0,0-.61,0c-.09,0-.2.06-.21.15s.1.14.18.17l.59.19c-.09.06-.22,0-.33,0s-.24.09-.21.2.14.1.23.1a2.79,2.79,0,0,0,1.18-.23"/><path class="cls-2" d="M237.09,344.45a.12.12,0,0,0-.1.15v0a.18.18,0,0,0,.2.09.78.78,0,0,0,.21-.09,3.21,3.21,0,0,0,1-.87.27.27,0,0,0,.07-.27.27.27,0,0,0-.28-.09,1.09,1.09,0,0,0-.81.53,1.59,1.59,0,0,0,.38-.74c0-.1,0-.24-.08-.27a.2.2,0,0,0-.24.11,2.27,2.27,0,0,0-.4.77,1,1,0,0,0-.1-.84.28.28,0,0,0-.2-.13.19.19,0,0,0-.15.14.74.74,0,0,0,0,.21,4.34,4.34,0,0,0,.48,1.49"/><path class="cls-2" d="M234.91,342.33c-.09,0-.1.17,0,.24a.22.22,0,0,0,.27,0,.64.64,0,0,0,.19-.21,4.11,4.11,0,0,0,.62-1.46.33.33,0,0,0-.07-.33c-.1-.09-.25,0-.36,0a1.3,1.3,0,0,0-.61,1,1.89,1.89,0,0,0,0-1,.28.28,0,0,0-.24-.27c-.13,0-.17.14-.2.25a2.37,2.37,0,0,0,0,1.06,1.26,1.26,0,0,0-.57-.89c-.09-.05-.2-.1-.28-.05a.21.21,0,0,0-.1.23.53.53,0,0,0,.11.24,6.12,6.12,0,0,0,1.34,1.44"/><path class="cls-2" d="M250.49,293.08s-.74.31-1.9.84a27.75,27.75,0,0,0-4.34,2.47,28.69,28.69,0,0,0-3.83,3.21c-.9.91-1.42,1.52-1.45,1.49a2.91,2.91,0,0,1,.32-.46c.22-.28.56-.68,1-1.15a23.94,23.94,0,0,1,3.81-3.3,24.57,24.57,0,0,1,4.41-2.43c.6-.24,1.09-.42,1.43-.53A2.12,2.12,0,0,1,250.49,293.08Z"/><path class="cls-2" d="M247.05,298.32a8.36,8.36,0,0,0-6.05.5,5.11,5.11,0,0,1,3-1.08A5.3,5.3,0,0,1,247.05,298.32Z"/><path class="cls-2" d="M249.52,296c0,.08-1.22-.11-2.7,0s-2.66.42-2.68.34a8.55,8.55,0,0,1,5.38-.33Z"/><path class="cls-2" d="M244.41,293.68a8.85,8.85,0,0,1-2.08,4c-.06-.05.51-.88,1.08-2A22,22,0,0,1,244.41,293.68Z"/><path class="cls-2" d="M248,291.74a7.57,7.57,0,0,1-1.5,2.46,7.7,7.7,0,0,1-2.16,1.9c-.05-.06,1-.86,2-2.07S247.89,291.7,248,291.74Z"/><path class="cls-2" d="M244.28,294.14a2.08,2.08,0,0,0,.85-1c.06-.15.09-.34,0-.43a.27.27,0,0,0-.34,0,.72.72,0,0,0-.18.33,2.35,2.35,0,0,0-.2-.56.18.18,0,0,0-.21-.15c-.09,0-.1.13-.1.22v.62a.57.57,0,0,1-.15-.3.18.18,0,0,0-.26-.13c-.09.07-.05.17,0,.25a3,3,0,0,0,.61,1"/><path class="cls-2" d="M249.21,295.86a.12.12,0,0,0-.17,0s0,0,0,0a.17.17,0,0,0,0,.21.41.41,0,0,0,.15.17,3.45,3.45,0,0,0,1.15.65.32.32,0,0,0,.27,0,.26.26,0,0,0,0-.29,1.06,1.06,0,0,0-.77-.59,1.65,1.65,0,0,0,.82.12c.11,0,.24-.07.24-.17s-.1-.16-.19-.19a2.23,2.23,0,0,0-.85-.13.93.93,0,0,0,.75-.37.24.24,0,0,0,.06-.23.19.19,0,0,0-.18-.09.47.47,0,0,0-.2.06A4.45,4.45,0,0,0,249,296"/><path class="cls-2" d="M250.49,293.1c-.05-.07-.19,0-.22.06a.22.22,0,0,0,.07.25.66.66,0,0,0,.26.11,4.07,4.07,0,0,0,1.59.11.43.43,0,0,0,.29-.18.33.33,0,0,0-.15-.33,1.27,1.27,0,0,0-1.14-.25,1.87,1.87,0,0,0,1-.31c.11-.07.22-.2.17-.32s-.18-.12-.3-.11a2.73,2.73,0,0,0-1,.32,1.2,1.2,0,0,0,.66-.83.31.31,0,0,0-.05-.28.23.23,0,0,0-.25,0,.58.58,0,0,0-.19.19,6,6,0,0,0-.92,1.73"/><path class="cls-2" d="M173.61,313.14s-.12.78-.27,2.06a27.66,27.66,0,0,0,.56,9.93c.29,1.24.54,2,.5,2a2.91,2.91,0,0,1-.22-.51c-.13-.34-.29-.84-.46-1.46a23.94,23.94,0,0,1-.56-10c.1-.64.2-1.15.29-1.5A3.13,3.13,0,0,1,173.61,313.14Z"/><path class="cls-2" d="M176.28,318.81a10.88,10.88,0,0,0-1.88,2.44,10.75,10.75,0,0,0-.86,3,5.08,5.08,0,0,1,.63-3.08A5.2,5.2,0,0,1,176.28,318.81Z"/><path class="cls-2" d="M175.59,315.49c.06.05-.73,1-1.43,2.29s-1,2.48-1.11,2.46A8.47,8.47,0,0,1,175.59,315.49Z"/><path class="cls-2" d="M170.94,318.63a6.13,6.13,0,0,1,1.42,1.78,6.39,6.39,0,0,1,.91,2.09c-.07,0-.49-.9-1.13-2S170.89,318.68,170.94,318.63Z"/><path class="cls-2" d="M171.15,314.59a7.32,7.32,0,0,1,1.31,2.56A7.72,7.72,0,0,1,173,320c-.08,0-.23-1.27-.74-2.76S171.08,314.62,171.15,314.59Z"/><path class="cls-2" d="M171.27,319a2.08,2.08,0,0,0-.41-1.25c-.09-.13-.24-.25-.38-.2a.27.27,0,0,0-.14.32.8.8,0,0,0,.19.32,2.4,2.4,0,0,0-.59-.13c-.1,0-.22,0-.24.1s.06.15.14.2l.53.31a.62.62,0,0,1-.33,0c-.11,0-.25,0-.24.16s.11.13.2.15a3,3,0,0,0,1.2,0"/><path class="cls-2" d="M175.32,315.68a.14.14,0,0,0-.14.14.18.18,0,0,0,.17.13.45.45,0,0,0,.23,0,3.43,3.43,0,0,0,1.15-.64.25.25,0,0,0,.12-.24.26.26,0,0,0-.25-.16,1.11,1.11,0,0,0-.91.35,1.5,1.5,0,0,0,.53-.64c.05-.1.07-.23,0-.29s-.18,0-.26.06a2.34,2.34,0,0,0-.55.66.92.92,0,0,0,.08-.84.19.19,0,0,0-.16-.16.17.17,0,0,0-.18.1.74.74,0,0,0,0,.21,4.5,4.5,0,0,0,.15,1.55"/><path class="cls-2" d="M173.64,313.14c-.09,0-.13.15-.07.23a.23.23,0,0,0,.25.06.53.53,0,0,0,.23-.16A3.6,3.6,0,0,0,175,312a.3.3,0,0,0,0-.34c-.08-.11-.23-.09-.35-.05a1.24,1.24,0,0,0-.81.84,2,2,0,0,0,.24-1c0-.13-.05-.29-.18-.32s-.2.1-.25.2a2.64,2.64,0,0,0-.26,1,1.21,1.21,0,0,0-.36-1c-.08-.07-.17-.14-.27-.11a.22.22,0,0,0-.14.2.58.58,0,0,0,.06.26,5.55,5.55,0,0,0,1,1.69"/><path class="cls-2" d="M256.23,350.41s.16.78.46,2a28.32,28.32,0,0,0,1.6,4.73,29.52,29.52,0,0,0,2.41,4.37c.72,1.07,1.22,1.69,1.18,1.71a2.4,2.4,0,0,1-.38-.4c-.24-.27-.57-.68-.95-1.2a24.31,24.31,0,0,1-4-9.17c-.13-.63-.21-1.15-.25-1.51A2.33,2.33,0,0,1,256.23,350.41Z"/><path class="cls-2" d="M260.72,354.79a10.2,10.2,0,0,0-.91,2.95,11.38,11.38,0,0,0,.23,3.08,5.29,5.29,0,0,1-.48-3.11A5.14,5.14,0,0,1,260.72,354.79Z"/><path class="cls-2" d="M258.9,351.92c.08,0-.34,1.17-.53,2.65s-.1,2.69-.17,2.69a6.61,6.61,0,0,1-.09-2.73A6.88,6.88,0,0,1,258.9,351.92Z"/><path class="cls-2" d="M255.65,356.49a8.54,8.54,0,0,1,3.54,2.81c-.06.05-.77-.67-1.74-1.43S255.62,356.56,255.65,356.49Z"/><path class="cls-2" d="M254.43,352.64a7.28,7.28,0,0,1,2.12,1.94,7.49,7.49,0,0,1,1.46,2.48c-.07,0-.66-1.1-1.66-2.32S254.38,352.7,254.43,352.64Z"/><path class="cls-2" d="M256.08,356.71a2.11,2.11,0,0,0-.82-1c-.13-.08-.31-.15-.43,0a.29.29,0,0,0,0,.35.8.8,0,0,0,.29.23,2,2,0,0,0-.59.09c-.09,0-.2.08-.19.17s.11.13.2.14l.61.11c-.08.07-.21.06-.32.09s-.23.12-.18.22.15.09.24.08a3.12,3.12,0,0,0,1.14-.41"/><path class="cls-2" d="M258.72,352.2a.12.12,0,0,0-.1.12.08.08,0,0,0,0,.05.19.19,0,0,0,.2.07.51.51,0,0,0,.2-.12,3.15,3.15,0,0,0,.85-1,.32.32,0,0,0,0-.27.26.26,0,0,0-.29-.06,1.1,1.1,0,0,0-.73.65,1.6,1.6,0,0,0,.28-.79c0-.11,0-.24-.12-.26a.21.21,0,0,0-.22.15,2.13,2.13,0,0,0-.29.81.92.92,0,0,0-.22-.81c-.06-.06-.13-.12-.21-.1a.18.18,0,0,0-.13.15.41.41,0,0,0,0,.22,4.57,4.57,0,0,0,.69,1.4"/><path class="cls-2" d="M256.26,350.41a.14.14,0,0,0,0,.19l0,0a.23.23,0,0,0,.27,0,.7.7,0,0,0,.15-.23,3.92,3.92,0,0,0,.41-1.54.35.35,0,0,0-.12-.32.35.35,0,0,0-.35.08,1.28,1.28,0,0,0-.46,1.08,2,2,0,0,0-.12-1c-.05-.12-.15-.25-.28-.23s-.15.16-.17.28a2.81,2.81,0,0,0,.12,1,1.19,1.19,0,0,0-.68-.8.3.3,0,0,0-.29,0,.22.22,0,0,0-.06.24.64.64,0,0,0,.14.22,6,6,0,0,0,1.53,1.23"/><path class="cls-2" d="M243.62,328.58c-.05,0,.19-.77.48-2a29.44,29.44,0,0,0,.66-4.95,28.84,28.84,0,0,0-.23-5c-.17-1.27-.34-2.05-.3-2.06a2,2,0,0,1,.17.54c.09.34.2.85.31,1.49a23.93,23.93,0,0,1-.44,10c-.16.62-.32,1.12-.44,1.46A2.57,2.57,0,0,1,243.62,328.58Z"/><path class="cls-2" d="M241.53,322.67a11,11,0,0,0,2.12-2.25,10.59,10.59,0,0,0,1.15-2.86,6,6,0,0,1-3.27,5.11Z"/><path class="cls-2" d="M241.88,326c0-.06.83-.9,1.65-2.14s1.28-2.36,1.35-2.34A8.37,8.37,0,0,1,241.88,326Z"/><path class="cls-2" d="M246.82,323.38a6.32,6.32,0,0,1-1.23-1.91,6.13,6.13,0,0,1-.69-2.17c.07,0,.39.94.92,2.06S246.88,323.34,246.82,323.38Z"/><path class="cls-2" d="M246.21,327.38a7.56,7.56,0,0,1-1-2.68,7.71,7.71,0,0,1-.21-2.87c.08,0,.11,1.28.46,2.81S246.28,327.35,246.21,327.38Z"/><path class="cls-2" d="M246.53,323a2.16,2.16,0,0,0,.29,1.29.39.39,0,0,0,.36.23.28.28,0,0,0,.17-.3.89.89,0,0,0-.16-.34,2.7,2.7,0,0,0,.57.18c.1,0,.22,0,.25-.07s0-.16-.12-.21a4.82,4.82,0,0,1-.5-.37.63.63,0,0,1,.33.06c.1,0,.26,0,.26-.12s-.1-.14-.19-.17a2.83,2.83,0,0,0-1.19-.14"/><path class="cls-2" d="M242.17,325.87c.07,0,.16,0,.15-.12a.17.17,0,0,0-.15-.15.45.45,0,0,0-.23,0,3.42,3.42,0,0,0-1.21.52c-.08.06-.16.14-.14.23a.29.29,0,0,0,.23.18,1.1,1.1,0,0,0,.94-.25,1.46,1.46,0,0,0-.6.58c0,.09-.09.22,0,.29s.19,0,.27,0a2.36,2.36,0,0,0,.62-.6.94.94,0,0,0-.16.83.22.22,0,0,0,.14.18.2.2,0,0,0,.19-.08.58.58,0,0,0,.07-.21,4.54,4.54,0,0,0,0-1.56"/><path class="cls-2" d="M243.59,328.57c.09,0,.14-.13.1-.22a.25.25,0,0,0-.25-.09.62.62,0,0,0-.25.14,3.87,3.87,0,0,0-1,1.2.32.32,0,0,0,0,.33.31.31,0,0,0,.35.09,1.26,1.26,0,0,0,.89-.76,2,2,0,0,0-.34,1c0,.13,0,.3.15.33s.21-.07.27-.17a2.62,2.62,0,0,0,.36-1,1.2,1.2,0,0,0,.26,1c.07.08.16.15.25.13a.21.21,0,0,0,.17-.18.62.62,0,0,0,0-.27,5.77,5.77,0,0,0-.82-1.78"/><path class="cls-2" d="M207.39,282c0,.05-.73.32-1.89.85a27.75,27.75,0,0,0-4.34,2.47,28.69,28.69,0,0,0-3.83,3.21c-.91.91-1.42,1.52-1.45,1.49a2.1,2.1,0,0,1,.32-.46c.22-.28.56-.68,1-1.15a23.94,23.94,0,0,1,3.81-3.3,24.57,24.57,0,0,1,4.41-2.43c.6-.24,1.09-.42,1.43-.53Z"/><path class="cls-2" d="M204,287.28a11,11,0,0,0-3.07-.32,11.23,11.23,0,0,0-3,.82,6,6,0,0,1,6.07-.5Z"/><path class="cls-2" d="M206.43,285c0,.08-1.22-.11-2.7,0s-2.66.42-2.68.34a8.55,8.55,0,0,1,5.38-.33Z"/><path class="cls-2" d="M201.32,282.64a8.85,8.85,0,0,1-2.08,4c-.06,0,.51-.88,1.08-2A22,22,0,0,1,201.32,282.64Z"/><path class="cls-2" d="M204.87,280.7a7.57,7.57,0,0,1-1.5,2.46,7.7,7.7,0,0,1-2.16,1.9c-.05-.06,1-.86,2-2.07S204.8,280.66,204.87,280.7Z"/><path class="cls-2" d="M201.19,283.1a2.08,2.08,0,0,0,.85-1c.06-.15.09-.34,0-.43a.29.29,0,0,0-.35,0,.87.87,0,0,0-.17.33,2.35,2.35,0,0,0-.2-.56.18.18,0,0,0-.21-.15c-.09,0-.1.13-.1.22v.62a.57.57,0,0,1-.15-.3.18.18,0,0,0-.26-.13c-.09.07,0,.17,0,.25a3,3,0,0,0,.61,1"/><path class="cls-2" d="M206.12,284.82a.12.12,0,0,0-.17,0l0,0a.17.17,0,0,0,0,.21.35.35,0,0,0,.15.17,3.45,3.45,0,0,0,1.15.65.32.32,0,0,0,.27,0,.26.26,0,0,0,0-.29,1.06,1.06,0,0,0-.77-.59,1.65,1.65,0,0,0,.82.12.23.23,0,0,0,.24-.17c0-.1-.1-.16-.19-.19a2.23,2.23,0,0,0-.85-.13.93.93,0,0,0,.75-.37.24.24,0,0,0,.06-.23.19.19,0,0,0-.18-.09.47.47,0,0,0-.2.06,4.48,4.48,0,0,0-1.25,1"/><path class="cls-2" d="M207.4,282.06c-.05-.07-.19,0-.23.06a.26.26,0,0,0,.08.25.66.66,0,0,0,.26.11,4.07,4.07,0,0,0,1.59.11.27.27,0,0,0,.14-.51,1.27,1.27,0,0,0-1.14-.25,1.87,1.87,0,0,0,1-.31c.11-.07.22-.2.17-.32s-.18-.12-.3-.11a2.73,2.73,0,0,0-1,.32,1.2,1.2,0,0,0,.66-.83.31.31,0,0,0,0-.28.23.23,0,0,0-.25,0,.58.58,0,0,0-.19.19,6,6,0,0,0-.92,1.73"/><path class="cls-2" d="M237.94,265.57s.39.69,1.05,1.79a29.38,29.38,0,0,0,2.94,4,28.05,28.05,0,0,0,3.62,3.44c1,.8,1.66,1.24,1.64,1.28a2.12,2.12,0,0,1-.49-.27c-.31-.19-.74-.48-1.26-.86a24.49,24.49,0,0,1-3.7-3.42,24.09,24.09,0,0,1-2.9-4.12,11.57,11.57,0,0,1-.69-1.36A3.48,3.48,0,0,1,237.94,265.57Z"/><path class="cls-2" d="M243.54,268.39a10.67,10.67,0,0,0,0,3.09,10.52,10.52,0,0,0,1.15,2.87,5.9,5.9,0,0,1-1.15-6Z"/><path class="cls-2" d="M241,266.2c.08,0,0,1.22.28,2.69s.72,2.59.65,2.62a6.47,6.47,0,0,1-.9-2.58A6.61,6.61,0,0,1,241,266.2Z"/><path class="cls-2" d="M239.22,271.54a8.66,8.66,0,0,1,4.21,1.62c0,.06-.93-.41-2.09-.85S239.2,271.61,239.22,271.54Z"/><path class="cls-2" d="M236.89,268.23a9.54,9.54,0,0,1,4.75,3.15c-.06.05-1-.86-2.28-1.72S236.87,268.3,236.89,268.23Z"/><path class="cls-2" d="M239.69,271.62a2.06,2.06,0,0,0-1.09-.74c-.15,0-.34-.05-.42.08a.27.27,0,0,0,.08.34.89.89,0,0,0,.35.14,2.31,2.31,0,0,0-.55.26c-.07.05-.16.13-.12.22s.14.08.23.07l.62-.08c-.06.1-.18.13-.28.18s-.18.19-.1.27.17,0,.25,0a3,3,0,0,0,1-.73"/><path class="cls-2" d="M240.86,266.53a.11.11,0,0,0,0,.15l0,0a.22.22,0,0,0,.22,0,.65.65,0,0,0,.15-.18,3.16,3.16,0,0,0,.51-1.21.25.25,0,0,0-.06-.26c-.08-.07-.2,0-.29,0a1.13,1.13,0,0,0-.5.83,1.47,1.47,0,0,0,0-.83.23.23,0,0,0-.19-.22c-.1,0-.15.12-.17.21a2.08,2.08,0,0,0,0,.86.92.92,0,0,0-.46-.7.24.24,0,0,0-.23,0,.18.18,0,0,0-.07.19.72.72,0,0,0,.09.2,4.6,4.6,0,0,0,1.07,1.13"/><path class="cls-2" d="M238,265.56c-.07.06,0,.19.08.22a.25.25,0,0,0,.24-.11.61.61,0,0,0,.08-.26,3.88,3.88,0,0,0-.07-1.59.33.33,0,0,0-.21-.27.31.31,0,0,0-.31.18,1.26,1.26,0,0,0-.12,1.16,1.92,1.92,0,0,0-.42-.93c-.08-.1-.22-.2-.33-.14s-.1.2-.08.32a2.62,2.62,0,0,0,.43,1,1.19,1.19,0,0,0-.9-.55.32.32,0,0,0-.27.07.2.2,0,0,0,0,.25.68.68,0,0,0,.21.17,6,6,0,0,0,1.82.72"/><path class="cls-2" d="M182.53,271.69s.39.7,1.05,1.8a28.78,28.78,0,0,0,2.94,4,28.13,28.13,0,0,0,3.62,3.45c1,.8,1.66,1.24,1.63,1.28a4.67,4.67,0,0,1-.49-.27c-.31-.19-.74-.48-1.26-.87a24.42,24.42,0,0,1-3.69-3.42,23.68,23.68,0,0,1-2.91-4.11c-.31-.57-.54-1-.69-1.36A1.81,1.81,0,0,1,182.53,271.69Z"/><path class="cls-2" d="M188.13,274.52a8.19,8.19,0,0,0,1.16,6A5.91,5.91,0,0,1,188.13,274.52Z"/><path class="cls-2" d="M185.53,272.33c.08,0,0,1.22.29,2.68s.71,2.6.64,2.63A8.45,8.45,0,0,1,185.53,272.33Z"/><path class="cls-2" d="M183.81,277.67a5.87,5.87,0,0,1,2.21.53,6.36,6.36,0,0,1,2,1.08c0,.07-.93-.4-2.09-.84S183.79,277.74,183.81,277.67Z"/><path class="cls-2" d="M181.48,274.35a9.69,9.69,0,0,1,4.74,3.15c-.05.06-1-.85-2.27-1.72S181.45,274.42,181.48,274.35Z"/><path class="cls-2" d="M184.28,277.74a2,2,0,0,0-1.1-.73c-.14,0-.34-.05-.42.08a.28.28,0,0,0,.09.33.85.85,0,0,0,.34.14,2.24,2.24,0,0,0-.54.26c-.08.05-.16.14-.13.22s.15.09.24.08l.61-.08c-.06.09-.18.12-.28.18s-.17.19-.1.27.17,0,.25,0a3,3,0,0,0,1-.72"/><path class="cls-2" d="M185.44,272.65a.12.12,0,0,0,0,.17l0,0a.17.17,0,0,0,.21,0,.65.65,0,0,0,.16-.17,3.59,3.59,0,0,0,.51-1.21.33.33,0,0,0-.06-.27c-.08-.06-.2,0-.29,0a1.07,1.07,0,0,0-.5.84,1.71,1.71,0,0,0,0-.84.21.21,0,0,0-.2-.21c-.11,0-.14.12-.17.21a2.08,2.08,0,0,0,0,.86,1,1,0,0,0-.45-.71.24.24,0,0,0-.23,0,.18.18,0,0,0-.08.19.66.66,0,0,0,.09.19,4.68,4.68,0,0,0,1.08,1.14"/><path class="cls-2" d="M182.56,271.68a.14.14,0,0,0,0,.2l0,0a.24.24,0,0,0,.25-.1.84.84,0,0,0,.08-.27,4.06,4.06,0,0,0-.07-1.59.31.31,0,0,0-.21-.27c-.11,0-.25.08-.32.18a1.28,1.28,0,0,0-.11,1.17,1.92,1.92,0,0,0-.42-.93c-.08-.1-.22-.2-.34-.14s-.1.2-.07.31a2.6,2.6,0,0,0,.42,1,1.2,1.2,0,0,0-.89-.56.32.32,0,0,0-.28.08.23.23,0,0,0,0,.25.68.68,0,0,0,.21.17,6.38,6.38,0,0,0,1.83.71"/><path class="cls-1" d="M239.59,263h-.43l-1.26.05a13.7,13.7,0,0,0-4.69,1.24c-3.9,1.74-8.53,6.54-11.55,13.87h0c-6.1,12.78-14.58,30.55-24.52,51.35l-.07.16h-.19l-40.27.73.29-.2c-1.66,4.18-3.43,8.62-5.22,13.11-.54,1.37-1.09,2.73-1.62,4.07l-.23-.43,57.49,13.25h-.11a15.35,15.35,0,0,0,7-3.46,11.92,11.92,0,0,0,2.33-3c.64-1.1,1.28-2.18,1.91-3.25l7-12.28,11.4-20.06c3.15-5.56,5.64-9.94,7.36-13l2-3.41c.21-.37.38-.65.51-.87s.18-.29.19-.28l-.15.3c-.12.22-.27.52-.48.9-.43.8-1.06,2-1.88,3.45l-7.22,13c-3.14,5.6-6.93,12.38-11.28,20.13l-7,12.31L217,354a12.3,12.3,0,0,1-2.42,3.09,15.76,15.76,0,0,1-7.21,3.62h-.11l-57.51-13.17-.37-.08.14-.35,1.63-4.08c1.79-4.49,3.55-8.93,5.22-13.11l.08-.2h.21l40.27-.67-.25.16,24.71-51.25h0c3.11-7.39,7.83-12.19,11.82-13.91a13.31,13.31,0,0,1,4.76-1.16h1.27A1.73,1.73,0,0,1,239.59,263Z"/><path class="cls-12" d="M219.09,370.5c-5.85-7-14.61-12.26-23.72-11.76-6.8.36-15.54,3.59-21.19,6.8-16,9.08-13,29.74-13,29.74l17.41,109.47,32.22-4.16-3.53-105.23,17.89-13.64Z"/><path class="cls-9" d="M225.64,381.43a3.19,3.19,0,0,1-.3.3l-.94.82-3.63,3.09L207.45,396.8l.09-.2c.5,10.44,1,23.86,1.48,38.47.52,17.18,1,32.73,1.34,44.05.17,5.59.32,10.14.42,13.34q.06,2.31.09,3.63v1a.86.86,0,0,1,0,.32,1.13,1.13,0,0,1-.05-.32,4.88,4.88,0,0,0-.07-.94q-.08-1.32-.21-3.63c-.15-3.2-.36-7.74-.62-13.34-.48-11.27-1-26.84-1.53-44-.46-14.6-.92-28-1.34-38.47v-.13l.09-.08,13.46-11,3.72-3,1-.77A2.27,2.27,0,0,1,225.64,381.43Z"/><path class="cls-9" d="M210.78,495.5a1.71,1.71,0,0,1,0,.32v1c0,.9,0,2.16.06,3.8v.09h-.1L178.59,505h-.26v-.26c-2.06-12.89-4.54-28.36-7.2-45-3.57-22.67-6.8-43.18-9.15-58.08a48.26,48.26,0,0,1,0-17.77,24.5,24.5,0,0,1,1.33-4.68,7.59,7.59,0,0,1,.77-1.5,1.92,1.92,0,0,1-.17.39c-.12.26-.29.65-.48,1.16a26.91,26.91,0,0,0-1.2,4.67,49.21,49.21,0,0,0,.23,17.66c2.39,14.89,5.69,35.39,9.33,58,2.62,16.63,5.07,32.1,7.1,45l-.3-.23,32.24-4-.09.11c0-1.64,0-2.9,0-3.8v-1A1,1,0,0,1,210.78,495.5Z"/><path class="cls-9" d="M200.94,378.56a8.35,8.35,0,0,1,1.58,2.15,27.33,27.33,0,0,1,2.64,5.86,28.28,28.28,0,0,1,1.23,6.32,8,8,0,0,1,0,2.67c-.2,0-.26-4.07-1.79-8.79S200.77,378.67,200.94,378.56Z"/><path class="cls-10" d="M217.83,259c2.42-2.45,1-3.86.1-6.27l-17.3-51.67c-7.51-16.94-29.57-6.88-29.57-6.88-10.4,3.82-11.87,15.52-9.47,23.5,2.67,8.87,6.28,19.59,9.7,25.68,6.89,12.23,17.47,10.19,17.47,10.19l4.38,11.79A6.86,6.86,0,0,0,202,269.4a7.08,7.08,0,0,0,1.45-.74Z"/><path class="cls-1" d="M167.71,226.36a1.76,1.76,0,0,0,2.23,1.08,1.69,1.69,0,0,0,1.18-2.08s0,0,0-.06a1.76,1.76,0,0,0-2.23-1.08,1.69,1.69,0,0,0-1.18,2.08S167.7,226.34,167.71,226.36Z"/><path class="cls-1" d="M166.16,224.12c.29.14,1.2-1.26,3-1.92s3.44-.25,3.56-.55c.06-.13-.3-.44-1-.65a4.88,4.88,0,0,0-2.95.17,4.65,4.65,0,0,0-2.28,1.8C166.06,223.6,166,224.06,166.16,224.12Z"/><path class="cls-1" d="M184.5,221a1.79,1.79,0,0,0,2.24,1.08,1.71,1.71,0,0,0,1.17-2.12v0a1.8,1.8,0,0,0-2.23-1.09,1.71,1.71,0,0,0-1.18,2.11Z"/><path class="cls-1" d="M183.8,217.58c.29.14,1.21-1.27,3-1.93s3.45-.25,3.56-.54c.06-.13-.3-.45-1-.65a4.85,4.85,0,0,0-2.94.16,4.6,4.6,0,0,0-2.29,1.81C183.71,217.05,183.66,217.52,183.8,217.58Z"/><path class="cls-1" d="M182.67,233.34a13.11,13.11,0,0,0-3.11.56c-.48.12-.94.19-1.14-.09a2.56,2.56,0,0,1-.2-1.47c0-1.27,0-2.6.07-4,0-5.66-.12-10.25-.35-10.25s-.44,4.59-.48,10.26v4a2.86,2.86,0,0,0,.43,1.89,1.25,1.25,0,0,0,1,.39,3.75,3.75,0,0,0,.82-.18A12,12,0,0,0,182.67,233.34Z"/><path class="cls-13" d="M188.76,253.56a35.28,35.28,0,0,0,15.69-11.1s-.91,10.49-14.38,14.1Z"/><path class="cls-13" d="M185.72,239.22a1.68,1.68,0,0,1-.3-2.36,1.7,1.7,0,0,1,1.17-.64,1.49,1.49,0,0,1,.43-1.79,2.14,2.14,0,0,1,1.88-.34A2.92,2.92,0,0,1,191,237a3.23,3.23,0,0,1-2.21,2.85,3.53,3.53,0,0,1-3.53-.92"/><path class="cls-1" d="M188.41,232.63c-.3.09.42,2-.73,4s-3.31,2.55-3.22,2.83c0,.13.6.21,1.48-.09a5.19,5.19,0,0,0,2.73-2.26,4.49,4.49,0,0,0,.49-3.34C188.94,233,188.54,232.57,188.41,232.63Z"/><path class="cls-1" d="M181.07,215c.36.42,2.06-.48,4.26-1s4.12-.59,4.23-1.13c.05-.26-.42-.6-1.28-.82a7.58,7.58,0,0,0-6.47,1.62C181.15,214.29,180.91,214.81,181.07,215Z"/><path class="cls-1" d="M163.69,218.45c.47.29,1.55-.59,3-1.16s2.85-.75,3-1.28c.05-.26-.3-.59-1-.77a4.67,4.67,0,0,0-4.83,2C163.5,217.82,163.48,218.3,163.69,218.45Z"/><path class="cls-1" d="M191.45,222.14a.4.4,0,0,1-.4.4h0a.4.4,0,0,1-.39-.41h0a.42.42,0,0,1,.41-.4A.41.41,0,0,1,191.45,222.14Z"/><path class="cls-1" d="M226.12,254.73l8.45,1.89-.42-3s-.89-13.26-11.51-22.74,3.78-13.17-5.46-25.7a39.8,39.8,0,0,0-10.81-10.6,16.57,16.57,0,0,1-2.18-1.64,67.82,67.82,0,0,0-5.33-4.84,9.26,9.26,0,0,0-5-1.84h0a14.65,14.65,0,0,0-3.38-.95c-5.19-.78-10.33,1.3-15.16,3.34-4.67,2-17.23,1.5-13.25,14.34h0c.83-2.14,4-3.91,6.56-1.81a7.7,7.7,0,0,1,3.07,5c.56,3,1.44,6.3,5.06,7.07a6.42,6.42,0,0,0,2.69,0c3-.68,5.46-5.25,11.23-4.16,0,0,5.62,1.74,5.95,5.27s-1.63,10.1,1.84,13.23,4,3,3.95,5.74a8.36,8.36,0,0,1-.06,1.35c-.44,4.27.39,25,17.43,18.39l6.36,1.72"/><path class="cls-1" d="M218.83,254.73a1.22,1.22,0,0,1,.16.32,3.45,3.45,0,0,1,.22,1,3.23,3.23,0,0,1-.27,1.62,5.29,5.29,0,0,1-1.31,1.73,37.48,37.48,0,0,1-4.31,3.43l-5.61,3.68a28.51,28.51,0,0,1-3,1.82,19.68,19.68,0,0,1-3.08,1.16,18.06,18.06,0,0,1-2.91.58,4.07,4.07,0,0,1-2.58-.68,7.37,7.37,0,0,1-2.55-2.74,2.88,2.88,0,0,1-.44-1.3s.19.45.66,1.17a7.88,7.88,0,0,0,2.56,2.48,3.69,3.69,0,0,0,2.29.55,19.84,19.84,0,0,0,5.77-1.79,30.08,30.08,0,0,0,2.93-1.78l5.64-3.64a41.85,41.85,0,0,0,4.34-3.28,3.86,3.86,0,0,0,1.63-3A8,8,0,0,0,218.83,254.73Z"/><path class="cls-8" d="M534.42,480.84c1-3.29,3-6.47,6.12-7.82s7.05-.6,10.4.61,6.62,2.84,10.17,3.06,7.56-1.47,8.63-4.86c1-3.19-.93-6.59-3.34-8.91a21,21,0,0,0-34.47,8.27"/><g class="cls-14"><path d="M534.42,480.84c1-3.29,3-6.47,6.12-7.82s7.05-.6,10.4.61,6.62,2.84,10.17,3.06,7.56-1.47,8.63-4.86c1-3.19-.93-6.59-3.34-8.91a21,21,0,0,0-34.47,8.27"/></g><path class="cls-3" d="M506.3,495.1c-5.21-5-4.95-13.56-2.35-20.26s8.27-11.84,14.6-15.23a46.26,46.26,0,0,1,40.31-1.31,19.17,19.17,0,0,0-15.47,9.08c-2.86,4.74-3.49,10.5-5.85,15.5A24.4,24.4,0,0,1,506.3,495.1"/><path class="cls-3" d="M503.79,465.37c-5.76-6.81-6.53-17.73-5.68-26.62s2.9-17.81,1.5-26.63c-.83-5.21-2.85-10.2-3.54-15.44s.29-11.17,4.35-14.55c4.67-3.89,12-3,16.87.68s7.67,9.39,9.73,15.1c4.52,12.56,6.17,26.49,2.46,39.31s-12.41,24.28-25.19,28.15"/><path class="cls-1" d="M501,521.22a5.08,5.08,0,0,1,0-.78c0-.52,0-1.28.05-2.25.07-2,.26-4.78.69-8.25A110.06,110.06,0,0,1,504,497.87a55.39,55.39,0,0,1,5.51-14,58.56,58.56,0,0,1,9-12A57.2,57.2,0,0,1,528,464c1.44-1,2.84-1.75,4-2.46a33.8,33.8,0,0,1,3.18-1.6l2.07-.87a5.05,5.05,0,0,1,.74-.27,4.63,4.63,0,0,1-.7.36l-2,.95c-.87.45-1.92,1-3.13,1.67a44.44,44.44,0,0,0-4,2.5,59.23,59.23,0,0,0-18.21,19.83c-5.31,9.28-6.76,19-7.81,25.87-.48,3.45-.72,6.26-.85,8.21-.05.94-.1,1.68-.13,2.24A4,4,0,0,1,501,521.22Z"/><path class="cls-8" d="M451.28,438.52c-10.67,6.43-10.64,12.29-8.85,17.82s8.33,9.38,13.76,7.31c3.06-1.18,5.29-3.84,7.19-6.52s3.68-5.55,6.34-7.48,6.52-2.66,9.19-.75"/><g class="cls-14"><path d="M451.28,438.52c-10.67,6.43-10.64,12.29-8.85,17.82s8.33,9.38,13.76,7.31c3.06-1.18,5.29-3.84,7.19-6.52s3.68-5.55,6.34-7.48,6.52-2.66,9.19-.75"/></g><path class="cls-3" d="M443.29,445.57c2.79-3.85,9.68-5,14-3s7.54,5.73,10.39,9.54,5.63,7.83,9.58,10.48,9.48,3.61,13.42.94a11.45,11.45,0,0,0,4.55-7.89,26.25,26.25,0,0,0-.62-9.3c-.94-4.48-2.48-9.15-6.06-12-4-3.17-9.53-3.32-14.62-3.16-5.85.2-11.78.63-17.27,2.66s-11.08,6.4-13.41,11.76"/><path class="cls-1" d="M492.16,512.68a1,1,0,0,1,0-.24v-.69c0-.64,0-1.52-.09-2.65-.07-2.33-.16-5.65-.28-9.73s-.3-9-.59-14.44-.71-11.39-1.53-17.6a56.78,56.78,0,0,0-1.77-8.94,47.44,47.44,0,0,0-3.27-7.83,45.16,45.16,0,0,0-4.13-6.47,42.23,42.23,0,0,0-4.5-4.95,33.55,33.55,0,0,0-8-5.44l-1.38-.64-1.05-.4-.63-.26a.65.65,0,0,1-.22-.11l.23.06.66.21,1.06.37c.42.15.88.37,1.41.6a31.93,31.93,0,0,1,8.13,5.36,41.88,41.88,0,0,1,4.6,5,44.07,44.07,0,0,1,4.2,6.51,45.92,45.92,0,0,1,3.32,7.89,56.46,56.46,0,0,1,1.8,9c.83,6.24,1.21,12.22,1.49,17.65s.41,10.33.5,14.45.11,7.44.12,9.74v3.34C492.24,512.65,492.16,512.68,492.16,512.68Z"/><path class="cls-1" d="M496,517.5a30.28,30.28,0,0,1-1.17-4.59,47.86,47.86,0,0,1-.49-12.87,85.13,85.13,0,0,1,4.06-18.67c2.19-6.87,5.17-14.21,7.71-22.1a100.43,100.43,0,0,0,3.06-11.69,104.77,104.77,0,0,0,1.51-11.15,162,162,0,0,0,.34-19.08c-.18-5.43-.47-9.83-.65-12.86l-.21-3.5v-.91a1.61,1.61,0,0,1,0-.31,1.06,1.06,0,0,1,0,.31,6.12,6.12,0,0,0,.09.9c.07.83.17,2,.3,3.49.23,3,.57,7.43.8,12.87a156.39,156.39,0,0,1-.24,19.12,103.29,103.29,0,0,1-1.49,11.21,101.44,101.44,0,0,1-3.07,11.75c-2.55,7.91-5.53,15.24-7.74,22.08a86.92,86.92,0,0,0-4.15,18.57,49.5,49.5,0,0,0,.34,12.81c.26,1.5.5,2.65.71,3.43.09.36.16.66.22.88Z"/><polygon class="cls-9" points="522.45 522.32 472.35 522.32 471.2 512.68 522.45 512.68 522.45 522.32"/><polygon class="cls-9" points="477.72 521.22 483.99 550.15 511.21 550.15 517.07 521.22 477.72 521.22"/><path class="cls-9" d="M522.45,522.32c0,.13-11,.21-24.6.17s-24.6-.18-24.6-.31,11-.21,24.6-.17S522.45,522.19,522.45,522.32Z"/><path class="cls-1" d="M513.85,536.6a20.75,20.75,0,0,0-4.41-2.53,15.67,15.67,0,0,0-5.37-1.08,19,19,0,0,0-6.59,1.21c-2.29.77-4.42,1.67-6.5,2.17a15.79,15.79,0,0,1-5.61.17,11.46,11.46,0,0,1-3.61-1.15,7.94,7.94,0,0,1-.87-.55c-.18-.14-.28-.22-.27-.23s.43.24,1.23.62a12.66,12.66,0,0,0,3.57,1,15.67,15.67,0,0,0,5.46-.26c2-.5,4.14-1.41,6.44-2.19a18.79,18.79,0,0,1,6.76-1.2,15.41,15.41,0,0,1,5.48,1.2,14.28,14.28,0,0,1,3.27,1.91,9.85,9.85,0,0,1,.78.67Q513.87,536.57,513.85,536.6Z"/><path class="cls-5" d="M513.47,538.53a22.07,22.07,0,0,0-4.24-2.5,14.34,14.34,0,0,0-5.17-1.06,18.5,18.5,0,0,0-6.38,1.15c-2.21.73-4.28,1.59-6.26,2.12a16.09,16.09,0,0,1-5.39.61,9.12,9.12,0,0,1-3.54-1,7.4,7.4,0,0,1-.84-.53c-.18-.14-.27-.22-.26-.23s.41.24,1.18.59a9.69,9.69,0,0,0,3.48.78,16.35,16.35,0,0,0,5.25-.69c1.94-.55,4-1.41,6.23-2.16a18.45,18.45,0,0,1,6.54-1.13,14.17,14.17,0,0,1,8.42,3.08q.39.32.75.66A2.13,2.13,0,0,1,513.47,538.53Z"/><path class="cls-5" d="M514.35,534.68a24.28,24.28,0,0,0-4.53-2.67,16.53,16.53,0,0,0-5.5-1.32,17.8,17.8,0,0,0-6.81,1.2,61.27,61.27,0,0,1-6.72,2.19,17.11,17.11,0,0,1-5.8,0,12.81,12.81,0,0,1-3.72-1.18,6.54,6.54,0,0,1-.91-.56c-.19-.14-.29-.23-.28-.24s.44.26,1.27.64a14.72,14.72,0,0,0,3.69,1,17.62,17.62,0,0,0,5.66-.11q3.39-.95,6.66-2.22a17.8,17.8,0,0,1,7-1.18,16.78,16.78,0,0,1,8.95,3.46c.37.29.63.52.81.69S514.36,534.67,514.35,534.68Z"/><path class="cls-1" d="M522.89,522.36c0,.13-11.27.24-25.17.24s-25.17-.11-25.17-.24,11.27-.24,25.17-.24S522.89,522.23,522.89,522.36Z"/></g><g id="Layer_5" data-name="Layer 5"><path class="cls-5" d="M85.36,264.29Zm-.13-.08Zm0,0Z"/><path class="cls-5" d="M85.36,264.32Zm0-.05Zm0,.05Z"/><path class="cls-5" d="M86,264.29h-.11v0h0Z"/><path class="cls-5" d="M86.2,264.29h-.11l0,0h0Z"/><path class="cls-5" d="M86.2,264.27h0Zm0,.05Z"/><path class="cls-5" d="M86.5,264.25Zm0-.05Zm0,0Zm0,0Z"/><path class="cls-5" d="M86.8,264.29h0Zm-.06-.11Zm0,.07Z"/><path class="cls-5" d="M85.84,264.55Zm.06-.07Zm0,0Zm0,0Z"/><path class="cls-5" d="M86.24,264.58h0Zm-.14-.08Zm0,0Z"/><path class="cls-5" d="M86.24,264.55h.06v.05h0Zm0-.1Zm0,.05Z"/><path class="cls-5" d="M86.8,264.55Zm.06-.07Zm0,0Zm0,0Z"/></g><path d="M357.82,436.13a3.92,3.92,0,0,1-.94,2.69,3.34,3.34,0,0,1-2.6,1.09h-2.17a3.13,3.13,0,0,1-2.43-1.11,3.66,3.66,0,0,1-.95-2.52v-2.94h1.37v3.1a1.92,1.92,0,0,0,.7,1.5,2.34,2.34,0,0,0,1.57.57h1.82a2.33,2.33,0,0,0,1.57-.58,1.92,1.92,0,0,0,.65-1.49v-4.5h1.41Zm-4-4.51a.94.94,0,0,1-.29.68,1,1,0,0,1-.69.28c-.7,0-1-.32-1-1s.33-.85,1-.85S353.84,431.05,353.84,431.62Z"/><path d="M362.57,436.35a3.61,3.61,0,0,1-2.51-.69,1.86,1.86,0,0,1-.49-1.46v-6.65H361v6c0,.65.11,1.05.33,1.19a3.53,3.53,0,0,0,1.26.17Z"/><path d="M368.36,433.71a3.16,3.16,0,0,1-.6,2,2.21,2.21,0,0,1-1.84.85,2.55,2.55,0,0,1-1.58-.53,7.1,7.1,0,0,1-2.38.33V435c.79,0,1.26-.07,1.39-.23a4,4,0,0,0,.09-1.08q.07-2.91,2.52-2.91a2.12,2.12,0,0,1,1.83.94A3.5,3.5,0,0,1,368.36,433.71Zm-1.22-.08c0-1-.41-1.52-1.22-1.52s-1.23.53-1.23,1.58.41,1.46,1.23,1.46S367.14,434.64,367.14,433.63Z"/><path d="M376,436.35h-.93a3.41,3.41,0,0,1-1,2.55,3.57,3.57,0,0,1-2.59,1h-1.81l-.19-1.4h1.77a2.45,2.45,0,0,0,1.66-.58,2.09,2.09,0,0,0,.71-1.57,5.3,5.3,0,0,1-2.57-.48,2.39,2.39,0,0,1-1.07-2.24,3.07,3.07,0,0,1,.86-2.48,2.54,2.54,0,0,1,1.66-.43,2.2,2.2,0,0,1,2.25,1.4,8.68,8.68,0,0,1,.36,2.82H376Zm-2.38-1.4v-1.33a1.76,1.76,0,0,0-.28-1,1,1,0,0,0-.88-.48.92.92,0,0,0-.91.46,2.57,2.57,0,0,0-.16,1.08,1.07,1.07,0,0,0,.74,1.14A5,5,0,0,0,373.64,435Z"/><path d="M380.56,434.06a2.42,2.42,0,0,1-.54,1.58,1.84,1.84,0,0,1-1.47.71h-3V435h2.57a1.09,1.09,0,0,0,.81-.24,1.17,1.17,0,0,0,.23-.84v-1.93h1.41Zm-1.89-4.4a.83.83,0,0,1-.26.61.92.92,0,0,1-.63.24,1.13,1.13,0,0,1-.69-.21.8.8,0,0,1-.31-.64c0-.51.31-.77.91-.77S378.67,429.15,378.67,429.66Zm2.69,0a.8.8,0,0,1-.26.61.88.88,0,0,1-.63.24,1.13,1.13,0,0,1-.69-.21.79.79,0,0,1-.3-.64c0-.51.3-.77.91-.77S381.36,429.15,381.36,429.66Z"/><path d="M390.77,436.11a3.88,3.88,0,0,1-1,2.66,3.25,3.25,0,0,1-2.55,1.14h-1.87l-.23-1.45h1.59a3.09,3.09,0,0,0,1.74-.48,1.77,1.77,0,0,0,.84-1.54v-4.5h1.45Z"/><path d="M394.52,436.35h-1.38v-9h1.38Z"/><path d="M403.47,436.35a1.67,1.67,0,0,1-1.51-.66,4.78,4.78,0,0,1-.87,2.93,3.16,3.16,0,0,1-2.68,1.29h-1.82l-.23-1.4h1.94a2.27,2.27,0,0,0,1.54-.59,1.91,1.91,0,0,0,.69-1.48v-4.5h1.41v2c0,.65.51,1,1.53,1Zm-1.58-8.16a1,1,0,0,1-.28.7.94.94,0,0,1-.69.28c-.72,0-1.08-.33-1.08-1s.34-.83,1-.83S401.89,427.64,401.89,428.19Z"/><path d="M411.78,434.48a2.43,2.43,0,0,1-.7,1.68,2.15,2.15,0,0,1-1.61.74,6.23,6.23,0,0,1-2.89-1,4.48,4.48,0,0,1-2,.47l-1.56,0V435H405a3.25,3.25,0,0,1-.78-1.94,2.24,2.24,0,0,1,.65-1.65,2.19,2.19,0,0,1,1.64-.64,2.37,2.37,0,0,1,1.69.76l-.92-1,1-.95Q411.78,432.9,411.78,434.48Zm-4.26-1.37a1,1,0,0,0-.35-.79,1.23,1.23,0,0,0-.84-.31.73.73,0,0,0-.62.32,1.12,1.12,0,0,0-.21.68c0,.61.37,1.06,1.12,1.35A1.32,1.32,0,0,0,407.52,433.11Zm2.78,1.46c0-.56-.62-1.47-1.86-2.72a1.93,1.93,0,0,1,.43,1.34A1.82,1.82,0,0,1,408,435a2.86,2.86,0,0,0,1.38.47C410,435.45,410.3,435.16,410.3,434.57Z"/><path d="M425.11,431.24a1.65,1.65,0,0,1-.64,1.31,2.07,2.07,0,0,1-1.38.51,2.37,2.37,0,0,1-1.73-1q0,1-1.47,1a2.79,2.79,0,0,1-1.38-.36v5.16h-1.37v-4.1a13.66,13.66,0,0,0-.71-4.59l1.39-.44.53,2.31a1,1,0,0,0,1.09.88,1,1,0,0,0,.74-.3.93.93,0,0,0,.34-.81l-.27-1.68,1.32-.48a13.68,13.68,0,0,1,.32,2.37c0,.06,0,.22,0,.49a1.11,1.11,0,0,0,.9.45,1,1,0,0,0,.71-.3.92.92,0,0,0,.3-.69c0-.06,0-.11,0-.16l-.23-1.68,1.3-.4.26,2.27A1.15,1.15,0,0,1,425.11,431.24Z"/><path d="M432.78,437.91h-1.37v-4.8a5,5,0,0,1-1.58.28,2.19,2.19,0,0,1-1.58-.55,2.08,2.08,0,0,1-.58-1.56,2.64,2.64,0,0,1,.67-1.83,2.25,2.25,0,0,1,1.76-.78,3,3,0,0,1,1.45.46c.82.49,1.23,1.89,1.23,4.21Zm-1.51-6.24c0-.24-.11-.59-.2-1a.86.86,0,0,0-.57-.6L430,430a1,1,0,0,0-.84.37,1.38,1.38,0,0,0-.31.91.83.83,0,0,0,.94.93A3,3,0,0,0,431.27,431.67Z"/><path d="M442.18,433.87a2.1,2.1,0,0,1-.78,1.61,2.51,2.51,0,0,1-3.46,0,2.12,2.12,0,0,1-.77-1.65,2.38,2.38,0,0,1,.78-1.75,2.49,2.49,0,0,1,1.77-.76,2.3,2.3,0,0,1,1.71.8A2.49,2.49,0,0,1,442.18,433.87Zm-1.13,0a1.33,1.33,0,0,0-.42-1,1.34,1.34,0,0,0-1-.41,1.3,1.3,0,0,0-1,.43,1.44,1.44,0,0,0-.41,1,1.15,1.15,0,0,0,.47.92,1.51,1.51,0,0,0,1,.36,1.28,1.28,0,0,0,.93-.41A1.24,1.24,0,0,0,441.05,433.83Z"/><path class="cls-5" d="M316.67,491.06H316a2.73,2.73,0,0,1-1.78-1,2.07,2.07,0,0,1-1.86,1H308l-.2-1.4h4.47c.52,0,.77-.17.77-.53a.73.73,0,0,0-.22-.53l-3.16-3.37.95-1,4.23,4.48a4.57,4.57,0,0,0,.76.7,2.19,2.19,0,0,0,1.05.2Z"/><path class="cls-5" d="M321,488.77a2.42,2.42,0,0,1-.54,1.58,1.84,1.84,0,0,1-1.47.71h-3v-1.4h2.57a1.09,1.09,0,0,0,.81-.24,1.22,1.22,0,0,0,.23-.84v-1.93H321Zm-2.94,5a.77.77,0,0,1-.26.59.91.91,0,0,1-.63.23,1.07,1.07,0,0,1-.67-.21.71.71,0,0,1-.31-.61c0-.52.3-.78.89-.78S318.05,493.24,318.05,493.76Zm2.69,0a.74.74,0,0,1-.26.59.88.88,0,0,1-.63.23,1.09,1.09,0,0,1-.67-.21.73.73,0,0,1-.3-.61c0-.52.29-.78.89-.78S320.74,493.24,320.74,493.76Z"/><path class="cls-5" d="M329,491.06a1.69,1.69,0,0,1-1.51-.66,4.72,4.72,0,0,1-.88,2.93,3.15,3.15,0,0,1-2.68,1.29h-1.82l-.22-1.4h1.93a2.27,2.27,0,0,0,1.56-.57,1.93,1.93,0,0,0,.68-1.5v-4.5h1.41v2c0,.63.51,1,1.53,1Z"/><path class="cls-5" d="M336.49,488.34l-3.22,1.84a6.23,6.23,0,0,1-2.37.8,22.72,22.72,0,0,1-2.52.08v-1.4a10,10,0,0,0,3.85-.53l1-.54c.39-.2,1-.52,1.72-1a1.27,1.27,0,0,0-.9-.72,6.41,6.41,0,0,0-1.25-.07h-2.46l-.19-1.4h3.47C335.54,485.44,336.49,486.41,336.49,488.34Zm-2.71-5.41a1,1,0,0,1-1,1c-.71,0-1.07-.33-1.07-1s.34-.85,1-.85S333.78,482.37,333.78,482.93Z"/><path class="cls-5" d="M350,491.06h-.64a2.73,2.73,0,0,1-1.78-1,2.07,2.07,0,0,1-1.87,1h-4.36l-.19-1.4h4.47c.51,0,.77-.17.77-.53a.73.73,0,0,0-.22-.53L343,485.23l.95-1,4.23,4.48a4.57,4.57,0,0,0,.76.7,2.17,2.17,0,0,0,1,.2Z"/><path class="cls-5" d="M355.34,491.06h-.43a2.64,2.64,0,0,1-1.82-.55,2.21,2.21,0,0,1-1.35.55h-2.31v-1.4a14,14,0,0,0,2.45-.1c.32-.11.47-.53.47-1.26v-1.65h1.43v1.93a.92.92,0,0,0,.47.92,3.22,3.22,0,0,0,1.09.16ZM352,493.61a1,1,0,0,1-1,1c-.71,0-1.06-.32-1.06-1s.34-.84,1-.84S352,493.05,352,493.61Z"/><path class="cls-5" d="M365.93,488.8a2.75,2.75,0,0,1-.48,1.69,1.78,1.78,0,0,1-1.54.73,2.64,2.64,0,0,1-1.9-1,2.29,2.29,0,0,1-1.71,1,2.64,2.64,0,0,1-1.92-1.13,2.41,2.41,0,0,1-1.83,1h-1.79v-1.4h1.69c.65,0,1-.35,1-1.05v-2h1.38v2.08a1,1,0,0,0,.36.82,1.23,1.23,0,0,0,.86.32c.65,0,1-.29,1-.87v-2.35h1.37v2.08a1.06,1.06,0,0,0,.36.82,1.19,1.19,0,0,0,.85.32q1,0,1-.87v-2.35h1.37Z"/><path class="cls-5" d="M378.44,491.06a2.88,2.88,0,0,1-1.35-.24,16,16,0,0,1-1.46-1.29,2.68,2.68,0,0,1-2.57,1.69,2.65,2.65,0,0,1-1.93-.76,2.62,2.62,0,0,1-.75-1.92,4.47,4.47,0,0,1,1.63-2.85l-.4-.46.95-1,4.21,4.48a5.68,5.68,0,0,0,.71.68,2.25,2.25,0,0,0,1,.22Zm-4-2.43a1,1,0,0,0-.27-.77L373,486.73a9.35,9.35,0,0,0-.82.83,1.73,1.73,0,0,0-.42,1.07,1.14,1.14,0,0,0,.37.89,1.28,1.28,0,0,0,.92.34,1.4,1.4,0,0,0,.94-.35A1.1,1.1,0,0,0,374.42,488.63Z"/><path class="cls-5" d="M382.22,488.77a2.4,2.4,0,0,1-.56,1.58,1.87,1.87,0,0,1-1.48.71h-2.3v-1.4a18.5,18.5,0,0,0,2.46-.08c.31-.12.47-.54.47-1.27,0-.18,0-.46,0-.83s0-.65,0-.83h1.44Zm-1.66,4.92a.94.94,0,0,1-.28.69,1,1,0,0,1-.69.28c-.7,0-1-.33-1-1s.34-.85,1-.85S380.56,493.12,380.56,493.69Z"/><path class="cls-5" d="M396.08,490.83a3.88,3.88,0,0,1-.94,2.7,3.34,3.34,0,0,1-2.6,1.09h-2.16a3.1,3.1,0,0,1-2.43-1.11,3.62,3.62,0,0,1-1-2.52v-2.94h1.38v3.1a1.91,1.91,0,0,0,.69,1.5,2.36,2.36,0,0,0,1.58.57h1.81a2.33,2.33,0,0,0,1.57-.58,1.88,1.88,0,0,0,.65-1.49v-4.5h1.41Zm-4-4.5a.93.93,0,0,1-.28.68,1,1,0,0,1-.69.28q-1,0-1.05-1c0-.57.33-.85,1-.85S392.1,485.76,392.1,486.33Z"/><path class="cls-5" d="M404.23,489.22a1.64,1.64,0,0,1-.64,1.36,2.2,2.2,0,0,1-1.44.48h-4.36l-.2-1.4h4.47c.52,0,.78-.18.78-.55a.73.73,0,0,0-.21-.51l-3.17-3.36,1-1,3.17,3.35A2.26,2.26,0,0,1,404.23,489.22Z"/><path class="cls-5" d="M410.67,491.24a3.15,3.15,0,0,1-1.06,2.39,3.52,3.52,0,0,1-2.48,1h-1.82l-.18-1.4h1.78a2.42,2.42,0,0,0,1.65-.58,2.12,2.12,0,0,0,.7-1.57,5.33,5.33,0,0,1-2.56-.47,2.41,2.41,0,0,1-1.06-2.25,3.1,3.1,0,0,1,.84-2.48,2.65,2.65,0,0,1,1.72-.44,2.1,2.1,0,0,1,2.14,1.34,8,8,0,0,1,.33,2.71Zm-1.41-1.58v-1.45c0-.92-.37-1.38-1.1-1.38a.93.93,0,0,0-.91.45,2.62,2.62,0,0,0-.16,1.09,1.06,1.06,0,0,0,.71,1.14A4.63,4.63,0,0,0,409.26,489.66Z"/><path class="cls-5" d="M418.92,491.06a1.64,1.64,0,0,1-1.5-.66,4.79,4.79,0,0,1-.88,2.93,3.15,3.15,0,0,1-2.68,1.29H412l-.23-1.4h1.94a2.27,2.27,0,0,0,1.54-.59,1.92,1.92,0,0,0,.7-1.48v-4.5h1.4v2c0,.65.51,1,1.53,1Zm-1.58-8.16a1,1,0,0,1-.28.7.92.92,0,0,1-.69.28c-.72,0-1.08-.33-1.08-1s.34-.83,1-.83S417.34,482.35,417.34,482.9Z"/><path class="cls-5" d="M424.94,488.84a1.94,1.94,0,0,1-.67,1.58,2.28,2.28,0,0,1-1.6.64h-4.22v-1.4h4.23c.52,0,.77-.35.77-1.05-.73,0-1.55-.05-2.47-.13a1.82,1.82,0,0,1-1.17-1.92,2.24,2.24,0,0,1,.64-1.65,2.29,2.29,0,0,1,1.67-.63,2.69,2.69,0,0,1,2.73,2.8Zm-1.57-1.56c0-1-.48-1.55-1.32-1.55-.62,0-.93.24-.93.74s.12.65.35.74a3.25,3.25,0,0,0,.87.07Zm-.2-4.8a.92.92,0,0,1-.3.69.93.93,0,0,1-.7.29c-.68,0-1-.33-1-1s.33-.83,1-.83S423.17,481.93,423.17,482.48Z"/><path class="cls-5" d="M428.76,491.06h-1.38v-9h1.38Z"/><path d="M368.32,401.56h-1.14l.06.6a2.32,2.32,0,0,1-.82,1.81,2.71,2.71,0,0,1-1.88.7h-1.89a2.73,2.73,0,0,1-2.29-1.07,3.93,3.93,0,0,1-.76-2.47v-2.2h1.23v2.68a1.69,1.69,0,0,0,.62,1.38,2.31,2.31,0,0,0,1.47.46h1.58a1.65,1.65,0,0,0,1.08-.35,1.29,1.29,0,0,0,.46-1c0-.27-.38-.43-1.14-.49-.13,0-.61,0-1.43,0l-.11-1.23h5Z"/><path d="M377.63,399.58a2.39,2.39,0,0,1-.42,1.48,1.56,1.56,0,0,1-1.35.64,2.32,2.32,0,0,1-1.66-.83,2,2,0,0,1-1.5.83,2.29,2.29,0,0,1-1.67-1,2.13,2.13,0,0,1-1.61.85h-1.57v-1.22h1.48c.57,0,.85-.31.85-.92V397.7h1.21v1.82a.92.92,0,0,0,.31.72,1.08,1.08,0,0,0,.76.28c.56,0,.84-.26.84-.77V397.7h1.2v1.82a.93.93,0,0,0,.32.72,1,1,0,0,0,.74.28c.58,0,.87-.26.87-.77V397.7h1.2Z"/><path d="M383.3,401.35a3.4,3.4,0,0,1-.85,2.32,2.84,2.84,0,0,1-2.23,1h-1.64l-.2-1.26h1.39a2.69,2.69,0,0,0,1.52-.43,1.51,1.51,0,0,0,.74-1.34V397.7h1.27Z"/><path d="M390.48,401.56a1.47,1.47,0,0,1-1.32-.58,4.14,4.14,0,0,1-.76,2.56,2.79,2.79,0,0,1-2.35,1.13h-1.59l-.2-1.22H386a2,2,0,0,0,1.36-.5,1.68,1.68,0,0,0,.59-1.31V397.7h1.23v1.77c0,.56.45.85,1.34.87Z"/><path d="M393.83,399.56a2.06,2.06,0,0,1-.49,1.38,1.64,1.64,0,0,1-1.29.62h-2v-1.22a14,14,0,0,0,2.15-.08c.28-.1.41-.47.41-1.11,0-.16,0-.4,0-.73s0-.56,0-.72h1.26Zm-1.45,4.3a.79.79,0,0,1-.25.6.86.86,0,0,1-.6.25c-.61,0-.92-.29-.92-.85s.29-.74.88-.74S392.38,403.37,392.38,403.86Z"/><path d="M402.83,401.72a2.74,2.74,0,0,1-.93,2.09,3.1,3.1,0,0,1-2.16.86h-1.6l-.15-1.22h1.55a2.12,2.12,0,0,0,1.45-.51,1.89,1.89,0,0,0,.61-1.37,4.66,4.66,0,0,1-2.24-.41,2.11,2.11,0,0,1-.93-2,2.73,2.73,0,0,1,.73-2.17,2.37,2.37,0,0,1,1.51-.38,1.83,1.83,0,0,1,1.87,1.18,7,7,0,0,1,.29,2.36Zm-1.23-1.39v-1.27c0-.8-.33-1.2-1-1.2a.81.81,0,0,0-.79.39,2.28,2.28,0,0,0-.14,1,.94.94,0,0,0,.62,1A4.44,4.44,0,0,0,401.6,400.33Z"/><path d="M415.17,401.56h-.57a2.36,2.36,0,0,1-1.55-.85,1.83,1.83,0,0,1-1.64.85H407.6l-.17-1.22h3.91c.45,0,.67-.16.67-.47a.62.62,0,0,0-.19-.46l-2.76-3,.83-.83,3.7,3.91a3.77,3.77,0,0,0,.66.62,2,2,0,0,0,.92.17Z"/><path d="M421,401.56l-.72,0-1.22,0a2.59,2.59,0,0,1-1.17-.28,10.07,10.07,0,0,1-3.5.33v-1.22h1.82a2.43,2.43,0,0,1-.68-1.63,1.91,1.91,0,0,1,.63-1.52,2.32,2.32,0,0,1,1.59-.54,1.87,1.87,0,0,1,1.49.65,2.21,2.21,0,0,1,.56,1.54,2.53,2.53,0,0,1-.45,1.5H421Zm-3.8-7.27a.64.64,0,0,1-.23.52.81.81,0,0,1-.55.2c-.57,0-.85-.24-.85-.72s.26-.68.78-.68S417.18,393.84,417.18,394.29Zm1.48,4.64a1.1,1.1,0,0,0-.3-.75.92.92,0,0,0-.71-.35.94.94,0,0,0-.69.28.84.84,0,0,0-.29.66c0,.51.41.94,1.24,1.29A1.49,1.49,0,0,0,418.66,398.93Zm.87-4.64a.67.67,0,0,1-.23.52.78.78,0,0,1-.54.2c-.57,0-.86-.24-.86-.72s.26-.68.79-.68S419.53,393.84,419.53,394.29Z"/><path d="M424.21,399.56a2.12,2.12,0,0,1-.49,1.38,1.64,1.64,0,0,1-1.3.62h-2v-1.22a14,14,0,0,0,2.15-.08c.27-.1.41-.47.41-1.11,0-.16,0-.4,0-.73s0-.56,0-.72h1.26Zm-1.21-3.8a.84.84,0,0,1-.25.62.82.82,0,0,1-.61.25q-.93,0-.93-.87c0-.48.29-.73.89-.73S423,395.28,423,395.76Z"/><path d="M434.41,397.18a1.43,1.43,0,0,1-.61,1.16,2,2,0,0,1-1.26.45,2.1,2.1,0,0,1-1.15-.4l0,4.54h-1.24v-3.6a11.71,11.71,0,0,0-.58-4l1.18-.39.49,2a.88.88,0,0,0,.91.78.91.91,0,0,0,.79-.41.79.79,0,0,0,.16-.57l-.2-1.46,1.15-.37A15.2,15.2,0,0,1,434.41,397.18Z"/><path d="M444.07,397.09a1.44,1.44,0,0,1-.56,1.14,1.84,1.84,0,0,1-1.22.45,2.06,2.06,0,0,1-1.5-.85c0,.6-.43.89-1.29.89a2.45,2.45,0,0,1-1.21-.31v4.52h-1.2v-3.59a12,12,0,0,0-.62-4l1.22-.38.46,2a.89.89,0,0,0,1,.78.87.87,0,0,0,.65-.26.84.84,0,0,0,.3-.72l-.23-1.46,1.15-.43a12.27,12.27,0,0,1,.28,2.08c0,.05,0,.19,0,.43a1,1,0,0,0,.79.39.85.85,0,0,0,.61-.26.8.8,0,0,0,.27-.61.71.71,0,0,0,0-.14l-.2-1.46,1.14-.35.23,2A.81.81,0,0,1,444.07,397.09Z"/><g id="Layer_5" class="sms smoke" data-name="Layer 5"><path class="cls-3" d="M130.05,243.17v31.41c0,3.81-3.63,6.9-8.09,6.9h-5.84l-1.29,10.85-8.57-10.85H51.94c-4.47,0-8.07-3.09-8.07-6.9V243.17c0-3.82,3.6-6.91,8.07-6.91h70C126.42,236.26,130.05,239.35,130.05,243.17Z"/><path class="cls-5" d="M55.68,254.93H55.6a1.46,1.46,0,0,1-1.17-.45,1.28,1.28,0,0,1-.56.34,2.93,2.93,0,0,1-.87.11H49.68a1.88,1.88,0,0,1-1.41-.5,2,2,0,0,1-.49-1.44v-1h1v1a1,1,0,0,0,.21.69.91.91,0,0,0,.67.21H53a1.3,1.3,0,0,0,.71-.13.56.56,0,0,0,.19-.49v-1.2h1v1.2a.67.67,0,0,0,.14.49.77.77,0,0,0,.53.13h.09s0,.06.07.17a1.84,1.84,0,0,1,0,.33v0a2,2,0,0,1,0,.34C55.74,254.87,55.71,254.93,55.68,254.93Zm-5.75-3.6.68-.68.67.68-.67.68Zm1.45,0,.68-.68.68.68-.05.06-.28.28-.35.34Z"/><path class="cls-5" d="M55.33,256.26l.68-.68.68.68-.68.68Zm.31-2.38h1.14a.79.79,0,0,0,.51-.12c.1-.08.14-.24.14-.49v-1.35h1v1.35a1.5,1.5,0,0,1-1.67,1.66H55.64s-.06-.06-.08-.17,0-.23,0-.34v0a1.84,1.84,0,0,1,0-.33C55.59,253.94,55.61,253.88,55.64,253.88Zm1.15,2.38.68-.68.68.68,0,.05-.28.28-.35.35Z"/><path class="cls-5" d="M60.81,254.93h-.19a1.41,1.41,0,0,1-1.1-.43,1.85,1.85,0,0,1-.37-1.24v-3.7h1v3.7a.73.73,0,0,0,.12.48.45.45,0,0,0,.37.14h.18s0,.06.07.17a1.84,1.84,0,0,1,0,.33v0a2,2,0,0,1,0,.34C60.86,254.87,60.84,254.93,60.81,254.93Z"/><path class="cls-5" d="M60.76,253.88h.38a1,1,0,0,0,.61-.15.59.59,0,0,0,.19-.47v-1.21h1v1.22a.66.66,0,0,0,.14.47.62.62,0,0,0,.45.14.58.58,0,0,0,.43-.14.68.68,0,0,0,.14-.47v-1.22h1v1.21a.71.71,0,0,0,.14.48.58.58,0,0,0,.43.14.42.42,0,0,0,.33-.13.9.9,0,0,0,.1-.48v-1.34h1v1.38a1.69,1.69,0,0,1-.38,1.18,1.49,1.49,0,0,1-2.12,0,1.39,1.39,0,0,1-1.11.45,1.35,1.35,0,0,1-1.07-.46,1.76,1.76,0,0,1-1.32.46h-.38s-.06-.06-.07-.17a2,2,0,0,1,0-.34v0a1.84,1.84,0,0,1,0-.33C60.71,253.94,60.73,253.88,60.76,253.88Z"/><path class="cls-5" d="M70,255.79c1,0,1.44-.44,1.44-1.31v-2.31h1v2.31a2.25,2.25,0,0,1-.64,1.71,2.52,2.52,0,0,1-1.82.62h-.45v-1H70Z"/><path class="cls-5" d="M74.55,254.93H72.92v-1.05h1.63c.61,0,.91-.11.91-.32a.68.68,0,0,0-.09-.28,2.27,2.27,0,0,0-.26-.36L74,251.62l-.09-.11.09-.11.49-.55.12-.13.12.14,1.2,1.4a2.07,2.07,0,0,1,.57,1.32,1.15,1.15,0,0,1-.51,1A2.35,2.35,0,0,1,74.55,254.93Z"/><path class="cls-5" d="M83.85,254.93h-.07a1.06,1.06,0,0,1-.31,0l-.26-.08a1.62,1.62,0,0,1-.24-.14,1.93,1.93,0,0,1-.21-.17l-.21-.2a1.53,1.53,0,0,1-.67.47,3.09,3.09,0,0,1-1,.16H79.22v-1.05h1.63a3,3,0,0,0,.46,0,1,1,0,0,0,.28-.08.53.53,0,0,0,.13-.1.23.23,0,0,0,0-.11.6.6,0,0,0-.09-.27,1.57,1.57,0,0,0-.26-.37l-1.12-1.3-.1-.11.1-.11.48-.55.13-.13.11.14L82.8,253l.46.53a3.37,3.37,0,0,0,.27.27l.16.1h.16s.05.06.07.17a1.84,1.84,0,0,1,0,.33v0a2,2,0,0,1,0,.34C83.9,254.87,83.88,254.93,83.85,254.93Z"/><path class="cls-5" d="M83.5,256.26l.69-.68.67.68-.67.68Zm.31-2.38H85a.84.84,0,0,0,.52-.12.65.65,0,0,0,.13-.49v-1.35h1v1.35A1.49,1.49,0,0,1,85,254.93H83.81s-.06-.06-.07-.17a2,2,0,0,1,0-.34v0a1.84,1.84,0,0,1,0-.33C83.76,253.94,83.78,253.88,83.81,253.88ZM85,256.26l.68-.68.68.68,0,.05s-.13.13-.28.28-.27.27-.35.35Z"/><path class="cls-5" d="M91.74,254.93h-.06a1.06,1.06,0,0,1-.31,0,1.34,1.34,0,0,1-.26-.08,1,1,0,0,1-.24-.14,2.11,2.11,0,0,1-.22-.17l-.21-.2a1.5,1.5,0,0,1-.66.47,3.16,3.16,0,0,1-1,.16H87.12v-1.05h1.63a3,3,0,0,0,.46,0,1,1,0,0,0,.28-.08.44.44,0,0,0,.12-.1.17.17,0,0,0,0-.11.6.6,0,0,0-.09-.27,1.94,1.94,0,0,0-.26-.37l-1.13-1.3-.09-.11.09-.11.49-.55.12-.13.12.14L90.69,253l.46.53a3.21,3.21,0,0,0,.28.27.93.93,0,0,0,.15.1h.16s.06.06.07.17a1.84,1.84,0,0,1,0,.33v0c0,.11,0,.22,0,.34S91.77,254.93,91.74,254.93Z"/><path class="cls-5" d="M91.7,253.88H93a3.23,3.23,0,0,0,1.48-.35l.89-.42-.54-.3a1.85,1.85,0,0,0-.89-.27,1.07,1.07,0,0,0-.41.08,2.1,2.1,0,0,0-.42.26l-.28.23-.12.1-.1-.12-.47-.52-.11-.12.13-.11.24-.21a3.53,3.53,0,0,1,.75-.49,2,2,0,0,1,.76-.16,2.48,2.48,0,0,1,1.24.36l.76.44a2.24,2.24,0,0,0,.71.28l.13,0v.95l-.09.05-1.67.84a4.1,4.1,0,0,1-2,.5H91.7s0-.06-.07-.17a2,2,0,0,1,0-.34v0a1.84,1.84,0,0,1,0-.33C91.65,253.94,91.67,253.88,91.7,253.88Zm1.44,2.38.69-.69.69.69-.69.69Z"/><path class="cls-5" d="M104.76,253.17a.8.8,0,0,0,.15.55.72.72,0,0,0,.88,0,.68.68,0,0,0,.13-.47v-1.22h1v1.21a.71.71,0,0,0,.13.48.6.6,0,0,0,.43.14.42.42,0,0,0,.33-.13.82.82,0,0,0,.1-.48v-1.34h1v1.38a1.74,1.74,0,0,1-.38,1.18,1.32,1.32,0,0,1-1,.44,1.34,1.34,0,0,1-1.08-.45,1.36,1.36,0,0,1-1.11.45l-.22,0-.22,0a.66.66,0,0,1-.19-.09,1.92,1.92,0,0,1-.7,1.47,2.9,2.9,0,0,1-1.8.5H102a2.68,2.68,0,0,1-1.9-.61,2.3,2.3,0,0,1-.65-1.77v-1.53h1v1.53a1.31,1.31,0,0,0,.37,1,1.77,1.77,0,0,0,1.16.32h.2a2,2,0,0,0,1.16-.27,1,1,0,0,0,.36-.84v-2.51h1v1.1Zm.16-2.38.65-.65.65.65-.65.64Zm.74-1,.64-.64.65.64-.65.65Zm.73,1,.64-.65.65.65-.65.64Z"/><path class="cls-5" d="M108.82,255.79c1,0,1.44-.44,1.44-1.31v-2.31h1v2.31a2.25,2.25,0,0,1-.64,1.71,2.5,2.5,0,0,1-1.81.62h-.45v-1h.44Z"/><path class="cls-5" d="M113.63,254.93h-.19a1.39,1.39,0,0,1-1.09-.43,1.8,1.8,0,0,1-.38-1.24v-3.7h1v3.7a.73.73,0,0,0,.12.48.47.47,0,0,0,.37.14h.18s.05.06.07.17a1.84,1.84,0,0,1,0,.33v0a2,2,0,0,1,0,.34C113.68,254.87,113.66,254.93,113.63,254.93Z"/><path class="cls-5" d="M117.74,254.93h-.55a3.89,3.89,0,0,1-.74-.08,2.55,2.55,0,0,1-.69-.23,3.18,3.18,0,0,1-1.44.31h-.74s0-.06-.07-.17a2,2,0,0,1,0-.34v0a1.84,1.84,0,0,1,0-.33c0-.11,0-.17.07-.17h.86a1.47,1.47,0,0,1-.25-.85,1.57,1.57,0,0,1,1.58-1.59,1.52,1.52,0,0,1,1.12.46,1.55,1.55,0,0,1,.46,1.13,1.47,1.47,0,0,1-.25.85h.64s.05.06.07.17a1.84,1.84,0,0,1,0,.33v0a2,2,0,0,1,0,.34C117.8,254.87,117.77,254.93,117.74,254.93Zm-2.69-4.63.69-.69.69.69-.69.7Zm1.3,2.74a.6.6,0,0,0-.16-.41.58.58,0,0,0-.42-.16.57.57,0,0,0-.43.16.53.53,0,0,0-.16.41.58.58,0,0,0,.17.4.6.6,0,0,0,.42.16.59.59,0,0,0,.41-.16A.56.56,0,0,0,116.35,253Z"/><path class="cls-5" d="M117.7,253.88h.38a1,1,0,0,0,.61-.15.58.58,0,0,0,.18-.47v-1.21h1v1.22a.66.66,0,0,0,.14.47.62.62,0,0,0,.45.14.58.58,0,0,0,.43-.14.68.68,0,0,0,.13-.47v-1.22h1v1.21a.71.71,0,0,0,.14.48.57.57,0,0,0,.43.14.38.38,0,0,0,.32-.13.82.82,0,0,0,.1-.48v-1.34h1v1.38a1.74,1.74,0,0,1-.38,1.18,1.49,1.49,0,0,1-2.12,0,1.4,1.4,0,0,1-1.12.45,1.38,1.38,0,0,1-1.07-.46,1.72,1.72,0,0,1-1.31.46h-.38s-.06-.06-.08-.17,0-.23,0-.34v0a1.84,1.84,0,0,1,0-.33C117.64,253.94,117.67,253.88,117.7,253.88Z"/><path class="cls-5" d="M69.5,266.6a.72.72,0,0,1,.2-.5.66.66,0,0,1,.49-.2.66.66,0,0,1,.5.2.72.72,0,0,1,.2.5.68.68,0,0,1-.7.69.66.66,0,0,1-.49-.2A.68.68,0,0,1,69.5,266.6Z"/><path class="cls-5" d="M76.33,267.3h-.06a1.06,1.06,0,0,1-.31,0,1.6,1.6,0,0,1-.26-.08,1.49,1.49,0,0,1-.24-.14l-.22-.17-.21-.2a1.43,1.43,0,0,1-.66.46,2.86,2.86,0,0,1-1,.17H71.71v-1.05h1.63a3,3,0,0,0,.46,0,1,1,0,0,0,.28-.08.5.5,0,0,0,.13-.11.17.17,0,0,0,0-.1.68.68,0,0,0-.09-.28,2.86,2.86,0,0,0-.26-.37L72.76,264l-.09-.1.09-.11.49-.55.12-.13.12.14,1.8,2.11.46.52a2.49,2.49,0,0,0,.27.28l.15.1h.16s.06.06.08.17a1.83,1.83,0,0,1,0,.33v0a2,2,0,0,1,0,.34C76.39,267.24,76.37,267.3,76.33,267.3Z"/><path class="cls-5" d="M76.29,266.25h.39a.94.94,0,0,0,.6-.15.56.56,0,0,0,.19-.47v-1.21h1v1.22a.71.71,0,0,0,.14.47.63.63,0,0,0,.46.14.57.57,0,0,0,.42-.14.71.71,0,0,0,.14-.48v-1.21h1v1.21a.71.71,0,0,0,.14.47.55.55,0,0,0,.43.15.39.39,0,0,0,.33-.14.86.86,0,0,0,.1-.47v-1.35h1v1.38a1.75,1.75,0,0,1-.38,1.19,1.34,1.34,0,0,1-1,.44,1.33,1.33,0,0,1-1.08-.45,1.36,1.36,0,0,1-1.11.45,1.33,1.33,0,0,1-1.07-.47,1.73,1.73,0,0,1-1.32.47h-.38s-.05-.06-.07-.17a2,2,0,0,1,0-.34v0a1.84,1.84,0,0,1,0-.33C76.24,266.31,76.26,266.25,76.29,266.25Zm2.35-3.1.65-.64.64.64-.64.64Zm.73-1,.65-.64.65.64-.65.65Zm.74,1,.64-.64.65.64-.65.64Z"/><path class="cls-5" d="M93.31,267.3h-.08a1.46,1.46,0,0,1-1.17-.45,1.23,1.23,0,0,1-.56.34,2.9,2.9,0,0,1-.86.11H87.31a1.91,1.91,0,0,1-1.41-.5,2,2,0,0,1-.49-1.44v-1h1v1a1,1,0,0,0,.21.69.94.94,0,0,0,.68.21h3.31a1.3,1.3,0,0,0,.71-.13.56.56,0,0,0,.19-.49v-1.2h1v1.2a.67.67,0,0,0,.14.48.77.77,0,0,0,.53.14h.09s.06.06.07.17a1.84,1.84,0,0,1,0,.33v0c0,.11,0,.22,0,.34S93.34,267.3,93.31,267.3Zm-5.75-3.6.68-.68.68.68-.68.68Zm1.46,0,.67-.68.68.68a.12.12,0,0,1-.05.05A3.32,3.32,0,0,1,90,264l-.35.35Z"/><path class="cls-5" d="M93.27,266.25h1.49l.4,0,.27-.06a.32.32,0,0,0,.15-.09.26.26,0,0,0,.08-.11s0-.07,0-.12l-.45,0a2,2,0,0,1-1.19-.3,1.11,1.11,0,0,1-.4-.95,1.6,1.6,0,0,1,.4-1.14,1.48,1.48,0,0,1,2.62,1v1.29c0,1-.64,1.51-1.91,1.51H93.27s-.06-.06-.08-.17,0-.23,0-.34v0a1.84,1.84,0,0,1,0-.33C93.21,266.31,93.24,266.25,93.27,266.25Zm1.2-4.39.69-.69.7.69-.7.69Zm.7,2.18a.57.57,0,0,0-.42.13.56.56,0,0,0-.13.4.27.27,0,0,0,.12.26,1.39,1.39,0,0,0,.52.06l.42,0v-.38a.45.45,0,0,0-.12-.34A.59.59,0,0,0,95.17,264Z"/><path class="cls-5" d="M99,267.3h-.19a1.38,1.38,0,0,1-1.1-.44,1.81,1.81,0,0,1-.37-1.23v-3.7h1v3.7a.73.73,0,0,0,.12.48.45.45,0,0,0,.37.14H99s0,.06.07.17a1.84,1.84,0,0,1,0,.33v0a2,2,0,0,1,0,.34C99.06,267.24,99,267.3,99,267.3Z"/><path class="cls-5" d="M98.66,268.63l.68-.68.68.68-.68.68Zm.31-2.38h1.13a.81.81,0,0,0,.52-.12.68.68,0,0,0,.14-.5v-1.34h1v1.35a1.65,1.65,0,0,1-.43,1.23,1.71,1.71,0,0,1-1.24.43H99s-.06-.06-.08-.17a2,2,0,0,1,0-.34v0a1.84,1.84,0,0,1,0-.33C98.91,266.31,98.94,266.25,99,266.25Zm1.15,2.38.67-.68.68.68,0,.05-.29.28-.35.35Z"/><path class="cls-5" d="M102.37,268.16c1,0,1.44-.44,1.44-1.31v-2.31h1v2.31a2.25,2.25,0,0,1-.64,1.71,2.51,2.51,0,0,1-1.81.62h-.46v-1h.45Z"/><path class="cls-5" d="M106.94,267.3h-1.63v-1.05h1.63c.61,0,.91-.11.91-.32a.68.68,0,0,0-.09-.28,2.86,2.86,0,0,0-.26-.37l-1.13-1.3-.09-.1.09-.11.49-.55.12-.13.12.14,1.2,1.4a2.07,2.07,0,0,1,.57,1.32,1.15,1.15,0,0,1-.51,1A2.42,2.42,0,0,1,106.94,267.3Z"/><path class="cls-5" d="M113.47,267.3h-.18a1.38,1.38,0,0,1-1.1-.44,1.81,1.81,0,0,1-.38-1.23v-3.7h1v3.7a.73.73,0,0,0,.12.48.49.49,0,0,0,.38.14h.17s0,.06.07.17a1.84,1.84,0,0,1,0,.33v0c0,.11,0,.22,0,.34S113.5,267.3,113.47,267.3Z"/><path class="cls-5" d="M117.74,267.3h-.13a1.4,1.4,0,0,1-.88-.28,1.51,1.51,0,0,1-1,.33,1.49,1.49,0,0,1-1-.33,1.25,1.25,0,0,1-.87.28h-.41s-.06-.06-.08-.17a2,2,0,0,1,0-.34v0c0-.11,0-.22,0-.33s.05-.17.08-.17h.4a.81.81,0,0,0,.25,0c.06,0,.1,0,.11-.05l0-.09c0-.12,0-.27,0-.45a1.88,1.88,0,0,1,.39-1.28,1.39,1.39,0,0,1,1.09-.44,1.45,1.45,0,0,1,1.14.44,1.92,1.92,0,0,1,.38,1.28,1.62,1.62,0,0,1,0,.21,1.54,1.54,0,0,0,0,.19.58.58,0,0,0,0,.1,0,0,0,0,0,0,0,.23.23,0,0,0,.13.05.93.93,0,0,0,.26,0h.14s.05.06.07.17a1.84,1.84,0,0,1,0,.33v0a2,2,0,0,1,0,.34C117.8,267.24,117.77,267.3,117.74,267.3Zm-2.39-1.13a.43.43,0,0,0,.37.16.45.45,0,0,0,.38-.16,1,1,0,0,0,.12-.55.84.84,0,0,0-.12-.52.45.45,0,0,0-.38-.15.46.46,0,0,0-.38.15.84.84,0,0,0-.12.52A.87.87,0,0,0,115.35,266.17Z"/><path class="cls-5" d="M117.7,266.25h.38a1,1,0,0,0,.61-.15.58.58,0,0,0,.18-.47v-1.21h1v1.22a.66.66,0,0,0,.14.47.62.62,0,0,0,.45.14.58.58,0,0,0,.43-.14.71.71,0,0,0,.13-.48v-1.21h1v1.21a.66.66,0,0,0,.14.47.53.53,0,0,0,.43.15.36.36,0,0,0,.32-.14.78.78,0,0,0,.1-.47v-1.35h1v1.38a1.75,1.75,0,0,1-.38,1.19,1.49,1.49,0,0,1-2.12,0,1.39,1.39,0,0,1-1.11.45,1.36,1.36,0,0,1-1.08-.47,1.69,1.69,0,0,1-1.31.47h-.38s-.06-.06-.08-.17,0-.23,0-.34v0a1.84,1.84,0,0,1,0-.33C117.65,266.31,117.67,266.25,117.7,266.25Zm2.35-3.1.64-.64.65.64-.65.64Zm.73-1,.65-.64.64.64-.64.65Zm.73,1,.65-.64.64.64-.64.64Z"/></g></svg>